# Blender v3.0.1 OBJ File: 'biblioteca.blend'
# www.blender.org
mtllib biblioteca.mtl
o Librero_Plane
v -0.317491 0.594963 1.813622
v 0.174165 0.594963 1.813622
v -0.317491 0.594963 -1.165063
v 0.174165 0.594963 -1.165063
v -0.317491 3.414227 1.813622
v 0.174165 3.364739 1.764134
v -0.317491 3.414227 -1.165063
v 0.174165 3.364739 -1.115574
v 0.174165 0.594963 0.324280
v 0.174165 3.364739 0.324280
v 0.174165 2.054084 -1.115574
v 0.174165 2.054084 1.764134
v 0.174165 2.004595 0.324280
v 0.174165 1.299779 1.813622
v 0.174165 0.594963 1.068951
v 0.174165 1.299779 0.324280
v 0.174165 2.054084 1.068951
v 0.174165 1.299779 1.068951
v 0.174165 0.594963 -0.420392
v 0.174165 1.299779 -1.165063
v 0.174165 1.652187 0.324280
v 0.174165 2.054084 -0.420392
v 0.174165 0.947371 0.324280
v 0.174165 3.414227 0.324280
v 0.174165 3.414227 -1.165063
v 0.174165 2.004595 -1.165063
v 0.174165 3.414227 1.813622
v 0.174165 2.004595 1.813622
v 0.174165 2.004595 1.068951
v 0.174165 2.004595 -0.420392
v 0.174165 2.054084 0.324280
v -0.314073 2.054084 0.324280
v -0.314073 3.364739 0.324280
v -0.314073 3.364739 -1.115574
v -0.314073 2.054084 -1.115574
v -0.314073 3.364739 1.764134
v -0.314073 2.054084 1.764134
v -0.314073 2.054084 1.068951
v -0.314073 2.054084 -0.420392
v 0.174165 1.333943 1.034787
v 0.174165 1.333943 0.358443
v 0.174165 1.652187 0.358443
v 0.174165 1.970432 0.358443
v 0.174165 1.970432 1.034787
v 0.174165 1.333943 1.779459
v 0.174165 1.333943 1.103115
v 0.174165 1.970432 1.103115
v 0.174165 1.970432 1.779459
v 0.174165 0.629127 1.779459
v 0.174165 0.629127 1.103115
v 0.174165 1.265615 1.103115
v 0.174165 1.265615 1.779459
v 0.174165 0.629127 1.034787
v 0.174165 0.629127 0.358443
v 0.174165 0.947371 0.358443
v 0.174165 1.265615 0.358443
v 0.174165 1.265615 1.034787
v 0.174165 1.333943 0.358443
v 0.174165 1.333943 1.034787
v 0.174165 1.970432 1.034787
v 0.174165 1.652187 0.358443
v 0.174165 1.970432 0.358443
v 0.174165 1.333943 1.103115
v 0.174165 1.333943 1.779459
v 0.174165 1.970432 1.779459
v 0.174165 1.970432 1.103115
v 0.174165 0.629127 1.779459
v 0.174165 0.629127 1.103115
v 0.174165 1.265615 1.779459
v 0.174165 1.265615 1.103115
v 0.174165 0.629127 1.034787
v 0.174165 0.629127 0.358443
v 0.174165 1.265615 1.034787
v 0.174165 0.947371 0.358443
v 0.174165 1.265615 0.358443
v -0.313905 1.333943 0.358443
v -0.313905 1.333943 1.034787
v -0.313905 1.970432 1.034787
v -0.313905 1.652187 0.358443
v -0.313905 1.970432 0.358443
v -0.313905 1.333943 1.103115
v -0.313905 1.333943 1.779459
v -0.313905 1.970432 1.779459
v -0.313905 1.970432 1.103115
v -0.313905 0.629127 1.779459
v -0.313905 0.629127 1.103115
v -0.313905 1.265615 1.779459
v -0.313905 1.265615 1.103115
v -0.313905 0.629127 1.034787
v -0.313905 0.629127 0.358443
v -0.313905 1.265615 1.034787
v -0.313905 0.947371 0.358443
v -0.313905 1.265615 0.358443
v 0.174165 0.634398 0.284845
v 0.174165 0.634398 -0.420392
v 0.174165 0.634398 -1.125628
v 0.174165 1.299779 -1.125628
v 0.174165 1.965160 -1.125628
v 0.174165 1.965161 -0.420392
v 0.174165 1.965161 0.284845
v 0.174165 1.652187 0.284845
v 0.174165 1.299779 0.284845
v 0.174165 0.947371 0.284845
v -0.314713 0.634398 0.284845
v -0.314713 0.634398 -0.420392
v -0.314713 0.947371 0.284845
v -0.314713 0.634398 -1.125628
v -0.314713 1.299779 -1.125628
v -0.314713 1.965160 -1.125628
v -0.314713 1.965161 -0.420392
v -0.314713 1.965161 0.284845
v -0.314713 1.652187 0.284845
v -0.314713 1.299779 0.284845
v 0.174165 2.054084 -1.115574
v 0.174165 2.054084 1.764134
v 0.174165 2.054084 1.068951
v 0.174165 2.054084 -0.420392
v 0.174165 2.054084 0.324280
v -0.314073 2.054084 0.324280
v -0.314073 2.054084 -1.115574
v -0.314073 2.054084 1.764134
v -0.314073 2.054084 1.068951
v -0.314073 2.054084 -0.420392
v 0.174165 2.054084 -1.115574
v 0.174165 2.054084 1.764134
v 0.174165 2.054084 1.068951
v 0.174165 2.054084 -0.420392
v 0.174165 2.054084 0.324280
v -0.314073 2.054084 0.324280
v -0.314073 2.054084 -1.115574
v -0.314073 2.054084 1.764134
v -0.314073 2.054084 1.068951
v -0.314073 2.054084 -0.420392
v 0.173241 2.687865 -1.123489
v 0.173241 2.687865 1.756219
v 0.173241 2.687865 1.061036
v 0.173241 2.687865 -0.428306
v 0.173241 2.687865 0.316365
v -0.314997 2.687865 0.316365
v -0.314997 2.687865 -1.123489
v -0.314997 2.687865 1.756219
v -0.314997 2.687865 1.061036
v -0.314997 2.687865 -0.428306
v 0.173241 2.725710 1.061036
v 0.173241 2.725710 1.756219
v 0.173241 2.725710 -0.428306
v 0.173241 2.725710 0.316365
v 0.173241 2.725710 -1.123489
v -0.314997 2.725710 1.756219
v -0.314997 2.725710 1.061036
v -0.314997 2.725710 0.316365
v -0.314997 2.725710 -0.428306
v -0.314997 2.725710 -1.123489
v 0.188082 2.728410 0.772263
v 0.188082 2.728410 0.601771
v -0.300156 2.728410 0.772263
v -0.300156 2.728410 0.565281
v 0.188082 3.329190 0.601771
v 0.188082 3.329190 0.772263
v -0.300156 3.329190 0.772263
v -0.300156 3.329190 0.565281
v 0.186641 2.728410 0.953174
v 0.186641 2.728410 0.782681
v -0.301597 2.728410 0.953174
v -0.314997 2.728410 0.782681
v 0.186641 3.329190 0.782681
v 0.186641 3.329190 0.953174
v -0.301597 3.329190 0.953174
v -0.314997 3.329190 0.782681
v 0.173241 2.728410 0.587618
v 0.173241 2.728410 0.417125
v -0.314997 2.728410 0.587618
v -0.314997 2.728410 0.417125
v 0.173241 3.329190 0.417125
v 0.173241 3.329190 0.587618
v -0.314997 3.329190 0.587618
v -0.314997 3.329190 0.417125
v 0.172179 2.725921 0.401605
v 0.172179 2.725921 0.231112
v -0.316059 2.725921 0.401605
v -0.316059 2.725921 0.231112
v 0.172179 3.326700 0.231112
v 0.172179 3.326700 0.401605
v -0.316059 3.326700 0.401605
v -0.316059 3.326700 0.231112
v 0.170282 2.728645 0.215542
v 0.170282 2.728645 0.045049
v -0.317956 2.728645 0.215542
v -0.317956 2.728645 0.045049
v 0.170282 3.329425 0.045049
v 0.170282 3.329425 0.215542
v -0.317956 3.329425 0.215542
v -0.317956 3.329425 0.045049
v 0.168385 2.731369 0.029478
v 0.168385 2.731369 -0.141014
v -0.319853 2.731369 0.029478
v -0.319853 2.731369 -0.141014
v 0.168385 3.332149 -0.141014
v 0.168385 3.332149 0.029478
v -0.319853 3.332149 0.029478
v -0.319853 3.332149 -0.141014
v 0.196337 2.726036 -0.435864
v 0.194211 2.808166 -0.585210
v -0.291681 2.728879 -0.406803
v -0.323367 2.811009 -0.556149
v 0.199336 3.334640 -0.295974
v 0.201461 3.252509 -0.146627
v -0.286556 3.255352 -0.117567
v -0.318243 3.337483 -0.266913
v 0.173241 2.054315 0.773947
v 0.173241 2.054315 0.603454
v -0.314997 2.054315 0.773947
v -0.314997 2.054315 0.603454
v 0.173241 2.655094 0.603454
v 0.173241 2.655094 0.773947
v -0.314997 2.655094 0.773947
v -0.314997 2.655094 0.603454
v -0.314997 2.655094 0.973961
v -0.314997 2.655094 1.144454
v 0.173241 2.655094 1.144454
v 0.173241 2.655094 0.973961
v -0.314997 2.054315 0.973961
v -0.314997 2.054315 1.144454
v 0.173241 2.054315 0.973961
v 0.173241 2.054315 1.144454
v 0.173241 2.054315 0.958240
v 0.173241 2.054315 0.787747
v -0.314997 2.054315 0.958240
v -0.314997 2.054315 0.787747
v 0.173241 2.655094 0.787747
v 0.173241 2.655094 0.958240
v -0.314997 2.655094 0.958240
v -0.314997 2.655094 0.787747
v -0.319282 2.577773 1.153952
v -0.313180 2.661511 1.302338
v 0.174740 2.654896 1.286007
v 0.168638 2.571158 1.137621
v -0.316496 2.054514 1.449126
v -0.310394 2.138252 1.597512
v 0.171424 2.047899 1.432795
v 0.177526 2.131637 1.581181
v 0.170282 2.728645 0.215542
v 0.170282 2.728645 0.045049
v -0.317956 2.728645 0.215542
v -0.317956 2.728645 0.045049
v 0.170282 3.329425 0.045049
v 0.170282 3.329425 0.215542
v -0.317956 3.329425 0.215542
v -0.317956 3.329425 0.045049
vt 0.000000 0.000000
vt 0.000000 1.000000
vt 1.000000 1.000000
vt 1.000000 0.750000
vt 1.000000 0.500000
vt 1.000000 0.250000
vt 1.000000 0.000000
vt 0.000000 0.000000
vt 1.000000 0.000000
vt 1.000000 0.500000
vt 1.000000 1.000000
vt 0.000000 1.000000
vt 1.000000 0.750000
vt 1.000000 0.983386
vt 1.000000 0.983386
vt 1.000000 0.750000
vt 1.000000 1.000000
vt 1.000000 1.000000
vt 1.000000 0.000000
vt 1.000000 0.000000
vt 1.000000 0.983386
vt 1.000000 0.500000
vt 1.000000 0.500000
vt 1.000000 0.983386
vt 1.000000 0.261469
vt 1.000000 0.488531
vt 1.000000 0.488531
vt 1.000000 0.261469
vt 1.000000 0.750000
vt 1.000000 0.986761
vt 1.000000 0.986761
vt 1.000000 0.750000
vt 1.000000 0.011469
vt 1.000000 0.011469
vt 1.000000 0.011469
vt 1.000000 0.011469
vt 1.000000 0.011469
vt 1.000000 0.238531
vt 1.000000 0.238531
vt 1.000000 0.011469
vt 1.000000 0.488531
vt 1.000000 0.488531
vt 1.000000 0.488531
vt 1.000000 0.488531
vt 1.000000 0.016614
vt 1.000000 0.016614
vt 1.000000 0.250000
vt 1.000000 0.250000
vt 1.000000 0.500000
vt 1.000000 0.500000
vt 1.000000 0.750000
vt 1.000000 0.500000
vt 1.000000 0.016614
vt 1.000000 0.250000
vt 1.000000 0.016614
vt 1.000000 0.250000
vt 1.000000 0.500000
vt 1.000000 0.488531
vt 1.000000 0.261469
vt 1.000000 0.500000
vt 1.000000 0.261469
vt 1.000000 0.238531
vt 1.000000 0.238531
vt 1.000000 0.238531
vt 1.000000 0.011469
vt 1.000000 0.500000
vt 1.000000 0.488531
vt 1.000000 0.488531
vt 1.000000 0.261469
vt 1.000000 0.488531
vt 1.000000 0.261469
vt 1.000000 0.238531
vt 1.000000 0.238531
vt 1.000000 0.011469
vt 1.000000 0.238531
vt 1.000000 0.011469
vt 1.000000 0.011469
vt 1.000000 0.238531
vt 1.000000 0.261469
vt 1.000000 0.261469
vt 1.000000 0.488531
vt 1.000000 0.238531
vt 1.000000 0.261469
vt 1.000000 0.488531
vt 1.000000 0.488531
vt 1.000000 0.488531
vt 1.000000 0.261469
vt 1.000000 0.261469
vt 1.000000 0.488531
vt 1.000000 0.488531
vt 1.000000 0.238531
vt 1.000000 0.011469
vt 1.000000 0.011469
vt 1.000000 0.238531
vt 1.000000 0.488531
vt 1.000000 0.488531
vt 1.000000 0.261469
vt 1.000000 0.513239
vt 1.000000 0.986761
vt 1.000000 0.986761
vt 1.000000 0.750000
vt 1.000000 0.513239
vt 1.000000 0.513239
vt 1.000000 0.513239
vt 1.000000 0.513239
vt 1.000000 0.513239
vt 1.000000 0.986761
vt 1.000000 0.986761
vt 1.000000 0.750000
vt 1.000000 0.513239
vt 1.000000 0.513239
vt 1.000000 0.513239
vt 1.000000 0.513239
vt 1.000000 0.750000
vt 1.000000 0.983386
vt 1.000000 0.983386
vt 1.000000 0.750000
vt 1.000000 0.500000
vt 1.000000 0.500000
vt 1.000000 0.250000
vt 1.000000 0.250000
vt 1.000000 0.016614
vt 1.000000 0.016614
vt 1.000000 0.750000
vt 1.000000 0.983386
vt 1.000000 0.983386
vt 1.000000 0.750000
vt 1.000000 0.500000
vt 1.000000 0.500000
vt 1.000000 0.250000
vt 1.000000 0.250000
vt 1.000000 0.016614
vt 1.000000 0.016614
vt 1.000000 0.750000
vt 1.000000 0.750000
vt 1.000000 0.983386
vt 1.000000 0.983386
vt 1.000000 0.500000
vt 1.000000 0.500000
vt 1.000000 0.250000
vt 1.000000 0.250000
vt 1.000000 0.016614
vt 1.000000 0.016614
vt 1.000000 0.750000
vt 1.000000 0.983386
vt 1.000000 0.983386
vt 1.000000 0.750000
vt 1.000000 0.500000
vt 1.000000 0.500000
vt 1.000000 0.250000
vt 1.000000 0.250000
vt 1.000000 0.016614
vt 1.000000 0.016614
vt 1.000000 0.250000
vt 1.000000 0.250000
vt 1.000000 0.500000
vt 1.000000 0.500000
vt 1.000000 0.250000
vt 1.000000 0.500000
vt 1.000000 0.250000
vt 1.000000 0.250000
vt 1.000000 0.500000
vt 1.000000 0.500000
vt 1.000000 0.250000
vt 1.000000 0.250000
vt 1.000000 0.500000
vt 1.000000 0.500000
vt 1.000000 0.250000
vt 1.000000 0.500000
vt 1.000000 0.250000
vt 1.000000 0.250000
vt 1.000000 0.500000
vt 1.000000 0.500000
vt 1.000000 0.250000
vt 1.000000 0.500000
vt 1.000000 0.250000
vt 1.000000 0.250000
vt 1.000000 0.500000
vt 1.000000 0.500000
vt 1.000000 0.250000
vt 1.000000 0.500000
vt 1.000000 0.250000
vt 1.000000 0.250000
vt 1.000000 0.500000
vt 1.000000 0.500000
vt 1.000000 0.250000
vt 1.000000 0.500000
vt 1.000000 0.500000
vt 1.000000 0.250000
vt 1.000000 0.250000
vt 1.000000 0.500000
vt 1.000000 0.250000
vt 1.000000 0.250000
vt 1.000000 0.500000
vt 1.000000 0.500000
vt 1.000000 0.250000
vt 1.000000 0.500000
vt 1.000000 0.500000
vt 1.000000 0.250000
vt 1.000000 0.250000
vt 1.000000 0.500000
vt 1.000000 0.250000
vt 1.000000 0.500000
vt 1.000000 0.250000
vt 1.000000 0.250000
vt 1.000000 0.500000
vt 1.000000 0.500000
vt 1.000000 0.250000
vt 1.000000 0.500000
vt 1.000000 0.500000
vt 1.000000 0.250000
vt 1.000000 0.250000
vt 1.000000 0.500000
vt 1.000000 0.500000
vt 1.000000 0.250000
vt 1.000000 0.250000
vt 1.000000 0.500000
vt 1.000000 0.250000
vt 1.000000 0.500000
vt 1.000000 0.250000
vt 1.000000 0.500000
vt 1.000000 0.500000
vt 1.000000 0.250000
vt 1.000000 0.250000
vt 1.000000 0.500000
vt 1.000000 0.250000
vt 1.000000 0.500000
vt 1.000000 0.250000
vt 1.000000 0.500000
vt 1.000000 0.250000
vt 1.000000 0.500000
vt 1.000000 0.250000
vt 1.000000 0.500000
vt 1.000000 0.250000
vt 1.000000 0.500000
vt 1.000000 0.250000
vt 1.000000 0.500000
vt 1.000000 0.250000
vt 1.000000 0.500000
vt 1.000000 0.250000
vt 1.000000 0.500000
vt 1.000000 0.250000
vt 1.000000 0.500000
vt 1.000000 0.250000
vt 1.000000 0.500000
vt 1.000000 0.500000
vt 1.000000 0.500000
vt 1.000000 0.250000
vt 1.000000 0.250000
vn 0.0000 -1.0000 0.0000
vn 0.0000 1.0000 0.0000
vn -1.0000 0.0000 0.0000
vn 0.0000 0.0000 -1.0000
vn 0.0000 0.0000 1.0000
vn 1.0000 0.0000 0.0000
vn -0.9831 -0.0807 0.1642
vn -0.9993 0.0135 0.0334
vn -0.0326 -0.8773 -0.4788
vn 0.0326 0.8773 0.4788
vn -0.0046 0.8710 -0.4913
vn 0.0046 -0.8710 0.4913
vn -0.0465 0.4813 -0.8753
vn 0.9999 -0.0015 -0.0150
vn 0.0493 -0.4813 0.8752
vn 0.0745 0.0000 -0.9972
vn -0.9969 0.0000 0.0784
vn 0.0358 0.4912 0.8703
vn 0.9993 -0.0135 -0.0334
vn -0.0358 -0.4912 -0.8703
usemtl Material.001
s off
f 1/1/1 3/2/1 4/3/1 19/4/1 9/5/1 15/6/1 2/7/1
f 5/8/2 27/9/2 24/10/2 25/11/2 7/12/2
f 22/13/2 11/14/2 35/15/2 39/16/2
f 3/2/3 1/1/3 5/8/3 7/12/3
f 4/3/4 3/2/4 7/12/4 25/11/4 26/17/4 20/18/4
f 1/1/5 2/7/5 14/19/5 28/20/5 27/9/5 5/8/5
f 8/21/1 10/22/1 33/23/1 34/24/1
f 53/25/5 54/26/5 72/27/5 71/28/5
f 95/29/2 96/30/2 107/31/2 105/32/2
f 48/33/5 45/34/5 64/35/5 65/36/5
f 49/37/5 50/38/5 68/39/5 67/40/5
f 42/41/5 43/42/5 62/43/5 61/44/5
f 10/22/6 8/21/6 25/11/6 24/10/6
f 8/21/6 11/14/6 26/17/6 25/11/6
f 6/45/6 10/22/6 24/10/6 27/9/6
f 12/46/6 6/45/6 27/9/6 28/20/6
f 17/47/6 12/46/6 28/20/6 29/48/6
f 22/13/6 31/49/6 13/50/6 30/51/6
f 31/49/6 17/47/6 29/48/6 13/50/6
f 11/14/6 22/13/6 30/51/6 26/17/6
f 32/52/6 39/16/6 35/15/6 34/24/6 33/23/6
f 37/53/6 38/54/6 32/52/6 33/23/6 36/55/6
f 31/49/2 22/13/2 39/16/2 32/52/2
f 6/45/4 12/46/4 37/53/4 36/55/4
f 11/14/5 8/21/5 34/24/5 35/15/5
f 17/47/2 31/49/2 32/52/2 38/54/2
f 12/46/2 17/47/2 38/54/2 37/53/2
f 10/22/1 6/45/1 36/55/1 33/23/1
f 18/56/6 16/57/6 41/58/6 40/59/6
f 16/57/6 21/60/6 42/41/6 41/58/6
f 21/60/6 13/50/6 43/42/6 42/41/6
f 13/50/6 29/48/6 44/61/6 43/42/6
f 29/48/6 18/56/6 40/59/6 44/61/6
f 14/19/6 18/56/6 46/62/6 45/34/6
f 18/56/6 29/48/6 47/63/6 46/62/6
f 29/48/6 28/20/6 48/33/6 47/63/6
f 28/20/6 14/19/6 45/34/6 48/33/6
f 2/7/6 15/6/6 50/38/6 49/37/6
f 15/6/6 18/56/6 51/64/6 50/38/6
f 18/56/6 14/19/6 52/65/6 51/64/6
f 14/19/6 2/7/6 49/37/6 52/65/6
f 15/6/6 9/5/6 54/26/6 53/25/6
f 9/5/6 23/66/6 55/67/6 54/26/6
f 23/66/6 16/57/6 56/68/6 55/67/6
f 16/57/6 18/56/6 57/69/6 56/68/6
f 18/56/6 15/6/6 53/25/6 57/69/6
f 71/28/2 72/27/2 90/70/2 89/71/2
f 64/35/2 63/72/2 81/73/2 82/74/2
f 70/75/1 69/76/1 87/77/1 88/78/1
f 62/43/1 60/79/1 78/80/1 80/81/1
f 43/42/5 44/61/5 60/79/5 62/43/5
f 52/65/5 49/37/5 67/40/5 69/76/5
f 46/62/5 47/63/5 66/82/5 63/72/5
f 57/69/5 53/25/5 71/28/5 73/83/5
f 50/38/5 51/64/5 70/75/5 68/39/5
f 47/63/5 48/33/5 65/36/5 66/82/5
f 54/26/5 55/67/5 74/84/5 72/27/5
f 51/64/5 52/65/5 69/76/5 70/75/5
f 55/67/5 56/68/5 75/85/5 74/84/5
f 40/59/5 41/58/5 58/86/5 59/87/5
f 56/68/5 57/69/5 73/83/5 75/85/5
f 44/61/5 40/59/5 59/87/5 60/79/5
f 41/58/5 42/41/5 61/44/5 58/86/5
f 45/34/5 46/62/5 63/72/5 64/35/5
f 77/88/6 76/89/6 79/90/6 80/81/6 78/80/6
f 82/74/6 81/73/6 84/91/6 83/92/6
f 85/93/6 86/94/6 88/78/6 87/77/6
f 89/71/6 90/70/6 92/95/6 93/96/6 91/97/6
f 65/36/4 64/35/4 82/74/4 83/92/4
f 73/83/4 71/28/4 89/71/4 91/97/4
f 63/72/5 66/82/5 84/91/5 81/73/5
f 59/87/2 58/86/2 76/89/2 77/88/2
f 72/27/5 74/84/5 92/95/5 90/70/5
f 66/82/1 65/36/1 83/92/1 84/91/1
f 60/79/4 59/87/4 77/88/4 78/80/4
f 74/84/5 75/85/5 93/96/5 92/95/5
f 67/40/2 68/39/2 86/94/2 85/93/2
f 58/86/5 61/44/5 79/90/5 76/89/5
f 75/85/1 73/83/1 91/97/1 93/96/1
f 69/76/4 67/40/4 85/93/4 87/77/4
f 61/44/5 62/43/5 80/81/5 79/90/5
f 68/39/5 70/75/5 88/78/5 86/94/5
f 9/5/6 19/4/6 95/29/6 94/98/6
f 19/4/6 4/3/6 96/30/6 95/29/6
f 4/3/6 20/18/6 97/99/6 96/30/6
f 20/18/6 26/17/6 98/100/6 97/99/6
f 26/17/6 30/51/6 99/101/6 98/100/6
f 30/51/6 13/50/6 100/102/6 99/101/6
f 13/50/6 21/60/6 101/103/6 100/102/6
f 21/60/6 16/57/6 102/104/6 101/103/6
f 16/57/6 23/66/6 103/105/6 102/104/6
f 23/66/6 9/5/6 94/98/6 103/105/6
f 104/106/6 105/32/6 107/31/6 108/107/6 109/108/6 110/109/6 111/110/6 112/111/6 113/112/6 106/113/6
f 102/104/4 103/105/4 106/113/4 113/112/4
f 99/101/1 100/102/1 111/110/1 110/109/1
f 96/30/5 97/99/5 108/107/5 107/31/5
f 94/98/2 95/29/2 105/32/2 104/106/2
f 100/102/4 101/103/4 112/111/4 111/110/4
f 97/99/5 98/100/5 109/108/5 108/107/5
f 103/105/4 94/98/4 104/106/4 106/113/4
f 101/103/4 102/104/4 113/112/4 112/111/4
f 98/100/1 99/101/1 110/109/1 109/108/1
f 117/114/2 114/115/2 120/116/2 123/117/2
f 118/118/2 117/114/2 123/117/2 119/119/2
f 116/120/2 118/118/2 119/119/2 122/121/2
f 115/122/2 116/120/2 122/121/2 121/123/2
f 127/124/2 124/125/2 130/126/2 133/127/2
f 128/128/2 127/124/2 133/127/2 129/129/2
f 126/130/2 128/128/2 129/129/2 132/131/2
f 125/132/2 126/130/2 132/131/2 131/133/2
f 137/134/1 143/135/1 140/136/1 134/137/1
f 138/138/1 139/139/1 143/135/1 137/134/1
f 136/140/1 142/141/1 139/139/1 138/138/1
f 135/142/1 141/143/1 142/141/1 136/140/1
f 146/144/2 148/145/2 153/146/2 152/147/2
f 147/148/2 146/144/2 152/147/2 151/149/2
f 144/150/2 147/148/2 151/149/2 150/151/2
f 145/152/2 144/150/2 150/151/2 149/153/2
f 139/139/3 142/141/3 150/151/3 151/149/3
f 137/134/6 134/137/6 148/145/6 146/144/6
f 135/142/6 136/140/6 144/150/6 145/152/6
f 140/136/3 143/135/3 152/147/3 153/146/3
f 142/141/3 141/143/3 149/153/3 150/151/3
f 141/143/5 135/142/5 145/152/5 149/153/5
f 138/138/6 137/134/6 146/144/6 147/148/6
f 134/137/4 140/136/4 153/146/4 148/145/4
f 143/135/3 139/139/3 151/149/3 152/147/3
f 136/140/6 138/138/6 147/148/6 144/150/6
f 154/154/1 156/155/1 157/156/1 155/157/1
f 157/156/3 156/155/3 160/158/3 161/159/3
f 162/160/1 164/161/1 165/162/1 163/163/1
f 170/164/1 172/165/1 173/166/1 171/167/1
f 173/166/3 172/165/3 176/168/3 177/169/3
f 178/170/1 180/171/1 181/172/1 179/173/1
f 181/172/3 180/171/3 184/174/3 185/175/3
f 186/176/1 188/177/1 189/178/1 187/179/1
f 189/178/3 188/177/3 192/180/3 193/181/3
f 194/182/1 196/183/1 197/184/1 195/185/1
f 197/184/3 196/183/3 200/186/3 201/187/3
f 205/188/7 204/189/7 208/190/7 209/191/7
f 210/192/1 212/193/1 213/194/1 211/195/1
f 213/194/3 212/193/3 216/196/3 217/197/3
f 222/198/3 223/199/3 219/200/3 218/201/3
f 225/202/1 223/199/1 222/198/1 224/203/1
f 226/204/1 228/205/1 229/206/1 227/207/1
f 229/206/3 228/205/3 232/208/3 233/209/3
f 238/210/8 239/211/8 235/212/8 234/213/8
f 245/214/3 244/215/3 248/216/3 249/217/3
usemtl Material.002
f 159/218/2 158/219/2 161/159/2 160/158/2
f 167/220/2 166/221/2 169/222/2 168/223/2
f 175/224/2 174/225/2 177/169/2 176/168/2
f 183/226/2 182/227/2 185/175/2 184/174/2
f 191/228/2 190/229/2 193/181/2 192/180/2
f 199/230/2 198/231/2 201/187/2 200/186/2
f 202/232/9 204/189/9 205/188/9 203/233/9
f 207/234/10 206/235/10 209/191/10 208/190/10
f 215/236/2 214/237/2 217/197/2 216/196/2
f 220/238/2 221/239/2 218/201/2 219/200/2
f 231/240/2 230/241/2 233/209/2 232/208/2
f 236/242/11 237/243/11 234/213/11 235/212/11
f 241/244/12 239/211/12 238/210/12 240/245/12
usemtl Material.003
f 179/173/4 181/172/4 185/175/4 182/227/4
f 178/170/6 179/173/6 182/227/6 183/226/6
f 180/171/5 178/170/5 183/226/5 184/174/5
f 203/233/13 205/188/13 209/191/13 206/235/13
f 202/232/14 203/233/14 206/235/14 207/234/14
f 204/189/15 202/232/15 207/234/15 208/190/15
f 227/207/4 229/206/4 233/209/4 230/241/4
f 226/204/6 227/207/6 230/241/6 231/240/6
f 228/205/5 226/204/5 231/240/5 232/208/5
usemtl Material.005
f 187/179/4 189/178/4 193/181/4 190/229/4
f 186/176/6 187/179/6 190/229/6 191/228/6
f 188/177/5 186/176/5 191/228/5 192/180/5
f 211/195/4 213/194/4 217/197/4 214/237/4
f 210/192/6 211/195/6 214/237/6 215/236/6
f 212/193/5 210/192/5 215/236/5 216/196/5
f 243/246/4 245/214/4 249/217/4 246/247/4
f 242/248/6 243/246/6 246/247/6 247/249/6
f 244/215/5 242/248/5 247/249/5 248/216/5
usemtl Material.006
f 171/167/4 173/166/4 177/169/4 174/225/4
f 170/164/6 171/167/6 174/225/6 175/224/6
f 172/165/5 170/164/5 175/224/5 176/168/5
usemtl Material.007
f 155/157/16 157/156/16 161/159/16 158/219/16
f 154/154/6 155/157/6 158/219/6 159/218/6
f 156/155/5 154/154/5 159/218/5 160/158/5
f 165/162/17 164/161/17 168/223/17 169/222/17
f 223/199/5 225/202/5 220/238/5 219/200/5
f 225/202/6 224/203/6 221/239/6 220/238/6
f 224/203/4 222/198/4 218/201/4 221/239/4
usemtl Material.008
f 163/163/4 165/162/4 169/222/4 166/221/4
f 162/160/6 163/163/6 166/221/6 167/220/6
f 164/161/5 162/160/5 167/220/5 168/223/5
f 195/185/4 197/184/4 201/187/4 198/231/4
f 194/182/6 195/185/6 198/231/6 199/230/6
f 196/183/5 194/182/5 199/230/5 200/186/5
f 239/211/18 241/244/18 236/242/18 235/212/18
f 241/244/19 240/245/19 237/243/19 236/242/19
f 240/245/20 238/210/20 234/213/20 237/243/20
