# Blender v3.0.1 OBJ File: 'marco.blend'
# www.blender.org
mtllib marco.mtl
o Cube
v 0.399149 3.646817 -2.743669
v 0.399149 -3.646817 -2.743669
v 0.399149 3.646817 2.743669
v 0.399149 -3.646817 2.743669
v -0.399149 3.832862 -2.883639
v -0.399149 -3.832862 -2.883639
v -0.399149 3.832862 2.883639
v -0.399149 -3.832862 2.883639
v 0.399149 3.832862 -2.883639
v 0.399149 -3.832862 -2.883639
v 0.399149 3.832862 2.883639
v 0.399149 -3.832862 2.883639
v 0.326992 3.558505 -2.677228
v 0.326992 -3.558505 -2.677228
v 0.326992 3.558505 2.677228
v 0.326992 -3.558505 2.677228
v 0.326992 3.646817 -2.743669
v 0.326992 -3.646817 -2.743669
v 0.326992 3.646817 2.743669
v 0.326992 -3.646817 2.743669
v 0.284117 3.468848 -2.609775
v 0.284117 -3.468848 -2.609775
v 0.284117 3.468848 2.609775
v 0.284117 -3.468848 2.609775
v 0.284117 3.558505 -2.677228
v 0.284117 -3.558505 -2.677228
v 0.284117 3.558505 2.677228
v 0.284117 -3.558505 2.677228
v 0.185680 3.378441 -2.541757
v 0.185680 -3.378441 -2.541757
v 0.185680 3.378441 2.541757
v 0.185680 -3.378441 2.541757
v 0.185680 3.468848 -2.609775
v 0.185680 -3.468848 -2.609775
v 0.185680 3.468848 2.609775
v 0.185680 -3.468848 2.609775
v -0.304684 3.378441 -2.541757
v -0.304684 -3.378441 -2.541757
v -0.304684 3.378441 2.541757
v -0.304684 -3.378441 2.541757
vt 0.754214 1.000000
vt -0.245786 1.000000
vt -0.245786 0.000000
vt 0.754214 0.000000
vt 0.754214 0.000000
vt 0.754214 1.000000
vt -0.245786 1.000000
vt -0.245786 0.000000
vt -0.144737 -0.145695
vt -0.144737 1.173553
vt 1.174512 1.173553
vt 1.174512 -0.145695
vt -0.245786 1.000000
vt 0.754214 1.000000
vt 1.211274 0.084673
vt -0.048138 0.083784
vt -0.048222 0.205018
vt 1.211189 0.205907
vt -0.245786 0.000000
vt 0.754214 0.000000
vt 0.975730 0.975730
vt 0.975730 0.024270
vt 1.000000 0.000000
vt 1.000000 1.000000
vt 0.024270 0.024270
vt 0.024270 0.975730
vt 0.000000 1.000000
vt 0.000000 0.000000
vt 1.210592 1.063712
vt 1.211481 -0.212437
vt 1.243629 -0.244966
vt 1.242694 1.096286
vt -0.022765 -0.337327
vt -0.012150 0.867387
vt -0.042206 0.898387
vt -0.053363 -0.367786
vt 0.663825 0.035790
vt 0.663825 0.964210
vt 0.610118 0.964210
vt 0.610118 0.035790
vt 0.754214 0.024270
vt 0.754214 0.975730
vt 0.663825 0.975730
vt 0.663825 0.024270
vt -0.020294 -0.056849
vt 1.168620 -0.067464
vt 1.169629 0.046984
vt -0.019286 0.057599
vt 0.754214 0.975730
vt 0.754214 0.024270
vt 0.663825 0.024270
vt 0.663825 0.975730
vt 0.964210 0.964210
vt 0.964210 0.035790
vt 0.975730 0.024270
vt 0.975730 0.975730
vt 0.035790 0.035790
vt 0.035790 0.964210
vt 0.024270 0.975730
vt 0.024270 0.024270
vt 1.195354 1.048249
vt 1.196221 -0.196996
vt 1.211481 -0.212437
vt 1.210592 1.063712
vt -0.008241 -0.322869
vt 0.002117 0.852672
vt -0.012150 0.867387
vt -0.022765 -0.337327
vt 0.010324 0.125343
vt 1.141218 0.115246
vt 1.142594 0.271377
vt 0.011700 0.281474
vt -0.004890 0.057471
vt 1.155234 0.047113
vt 1.155833 0.115115
vt -0.004291 0.125473
vt 0.663825 0.964210
vt 0.663825 0.035790
vt 0.610118 0.035790
vt 0.610118 0.964210
vt 1.195940 0.205896
vt -0.032973 0.205029
vt -0.033024 0.277064
vt 1.195890 0.277931
vt 0.952514 0.952514
vt 0.952514 0.047486
vt 0.964210 0.035790
vt 0.964210 0.964210
vt 0.047486 0.047486
vt 0.047486 0.952514
vt 0.035790 0.964210
vt 0.035790 0.035790
vt 1.179883 1.032551
vt 1.180729 -0.181320
vt 1.196221 -0.196996
vt 1.195354 1.048249
vt 0.006504 -0.308190
vt 0.016601 0.837732
vt 0.002117 0.852672
vt -0.008241 -0.322869
vt 0.026437 0.281343
vt 1.127857 0.271509
vt 1.134710 1.049270
vt 0.033290 1.059104
vt 0.610118 0.952514
vt 0.610118 0.047486
vt 0.486808 0.047486
vt 0.486808 0.952514
vt 1.180409 0.277920
vt -0.017542 0.277074
vt -0.017657 0.442464
vt 1.180294 0.443309
vt 0.610118 0.047486
vt 0.610118 0.952514
vt 0.486808 0.952514
vt 0.486808 0.047486
vt 0.940720 0.940720
vt 0.940720 0.059280
vt 0.952514 0.047486
vt 0.952514 0.952514
vt 0.059280 0.059280
vt 0.059280 0.940720
vt 0.047486 0.952514
vt 0.047486 0.047486
vt 1.164283 1.016722
vt 1.165107 -0.165512
vt 1.180729 -0.181320
vt 1.179883 1.032551
vt 0.021373 -0.293389
vt 0.031206 0.822668
vt 0.016601 0.837732
vt 0.006504 -0.308190
vt 1.692212 -0.273868
vt 1.692212 1.347020
vt -0.213747 1.347020
vt -0.213747 -0.273868
vt 0.486808 0.940720
vt 0.486808 0.059280
vt -0.127453 0.059280
vt -0.127453 0.940720
vt 1.164683 0.443298
vt -0.002047 0.442475
vt -0.002620 1.266354
vt 1.164109 1.267178
vt 0.486808 0.059280
vt 0.486808 0.940720
vt -0.127453 0.940720
vt -0.127453 0.059280
vn 0.0000 1.0000 0.0000
vn 0.0000 0.0000 1.0000
vn -1.0000 0.0000 0.0000
vn 0.0000 -1.0000 0.0000
vn 0.0000 0.0000 -1.0000
vn 1.0000 0.0000 0.0000
usemtl Material
s off
f 9/1/1 5/2/1 7/3/1 11/4/1
f 12/5/2 11/6/2 7/7/2 8/8/2
f 8/9/3 7/10/3 5/11/3 6/12/3
f 6/13/4 10/14/4 12/5/4 8/8/4
f 1/15/4 3/16/4 19/17/4 17/18/4
f 6/19/5 5/2/5 9/1/5 10/20/5
f 1/21/6 2/22/6 10/23/6 9/24/6
f 4/25/6 3/26/6 11/27/6 12/28/6
f 3/29/6 1/30/6 9/31/6 11/32/6
f 2/33/6 4/34/6 12/35/6 10/36/6
f 14/37/2 13/38/2 25/39/2 26/40/2
f 2/41/2 1/42/2 17/43/2 18/44/2
f 4/45/1 2/46/1 18/47/1 20/48/1
f 3/49/5 4/50/5 20/51/5 19/52/5
f 13/53/6 14/54/6 18/55/6 17/56/6
f 16/57/6 15/58/6 19/59/6 20/60/6
f 15/61/6 13/62/6 17/63/6 19/64/6
f 14/65/6 16/66/6 20/67/6 18/68/6
f 24/69/1 22/70/1 34/71/1 36/72/1
f 16/73/1 14/74/1 26/75/1 28/76/1
f 15/77/5 16/78/5 28/79/5 27/80/5
f 13/81/4 15/82/4 27/83/4 25/84/4
f 21/85/6 22/86/6 26/87/6 25/88/6
f 24/89/6 23/90/6 27/91/6 28/92/6
f 23/93/6 21/94/6 25/95/6 27/96/6
f 22/97/6 24/98/6 28/99/6 26/100/6
f 32/101/1 30/102/1 38/103/1 40/104/1
f 23/105/5 24/106/5 36/107/5 35/108/5
f 21/109/4 23/110/4 35/111/4 33/112/4
f 22/113/2 21/114/2 33/115/2 34/116/2
f 29/117/6 30/118/6 34/119/6 33/120/6
f 32/121/6 31/122/6 35/123/6 36/124/6
f 31/125/6 29/126/6 33/127/6 35/128/6
f 30/129/6 32/130/6 36/131/6 34/132/6
f 38/133/6 37/134/6 39/135/6 40/136/6
f 31/137/5 32/138/5 40/139/5 39/140/5
f 29/141/4 31/142/4 39/143/4 37/144/4
f 30/145/2 29/146/2 37/147/2 38/148/2
