# Blender v3.0.1 OBJ File: 'silla.blend'
# www.blender.org
mtllib silla.mtl
o Cube
v -0.999428 1.818430 -1.000151
v -0.999811 2.060349 -1.000634
v -1.000299 1.822421 0.999845
v -1.000682 2.064339 0.999362
v 1.000569 1.821595 -0.999286
v 1.000187 2.063513 -0.999769
v 0.999698 1.825585 1.000709
v 0.999316 2.067503 1.000227
v 0.999751 2.065508 0.000229
v 0.000188 2.061931 -1.000202
v -0.000683 2.065921 0.999794
v -1.000246 2.062344 -0.000636
v -0.000247 2.063926 -0.000204
v 0.999533 2.066506 0.500228
v 0.500187 2.062722 -0.999985
v -0.500682 2.065130 0.999578
v -1.000028 2.061346 -0.500635
v 0.999969 2.064511 -0.499770
v -0.499811 2.061140 -1.000418
v 0.499316 2.066712 1.000010
v -1.000464 2.063341 0.499363
v -0.000465 2.064924 0.499795
v -0.000030 2.062928 -0.500203
v 0.499752 2.064717 0.000013
v -0.500247 2.063135 -0.000420
v -0.500029 2.062137 -0.500419
v 0.499970 2.063720 -0.499986
v 0.499534 2.065715 0.500011
v -0.500464 2.064132 0.499579
v 0.999425 2.067005 0.750227
v 0.750187 2.063118 -0.999877
v -0.750682 2.064734 0.999470
v -0.999919 2.060847 -0.750634
v 0.999860 2.065009 -0.249771
v -0.249812 2.061535 -1.000310
v 0.249317 2.066317 0.999902
v -1.000355 2.062843 0.249363
v -0.000574 2.065423 0.749795
v -0.000139 2.063427 -0.250203
v 0.749752 2.065113 0.000121
v -0.250247 2.063530 -0.000312
v 0.999642 2.066007 0.250228
v 0.250188 2.062326 -1.000093
v -0.250683 2.065526 0.999686
v -1.000137 2.061845 -0.250635
v 1.000078 2.064012 -0.749770
v -0.749811 2.060744 -1.000526
v 0.749316 2.067108 1.000119
v -1.000573 2.063840 0.749363
v -0.000356 2.064425 0.249796
v 0.000079 2.062430 -0.750202
v 0.249752 2.064322 -0.000096
v -0.750246 2.062739 -0.000528
v -0.500138 2.062636 -0.250419
v -0.499920 2.061638 -0.750418
v -0.250029 2.062533 -0.500311
v -0.750029 2.061742 -0.500527
v 0.499861 2.064218 -0.249987
v 0.500078 2.063221 -0.749986
v 0.749969 2.064115 -0.499878
v 0.249970 2.063324 -0.500094
v 0.499425 2.066214 0.750011
v 0.499643 2.065216 0.250012
v 0.749534 2.066110 0.500120
v 0.249534 2.065319 0.499903
v -0.500573 2.064631 0.749579
v -0.500356 2.063634 0.249580
v -0.250465 2.064528 0.499687
v -0.750464 2.063737 0.499471
v -0.750355 2.063238 0.249472
v -0.250356 2.064029 0.249688
v -0.250574 2.065027 0.749687
v 0.249643 2.064820 0.249904
v 0.749643 2.065612 0.250120
v 0.749425 2.066609 0.750119
v 0.250079 2.062825 -0.750094
v 0.750078 2.063616 -0.749878
v 0.749860 2.064614 -0.249879
v -0.749920 2.061243 -0.750526
v -0.249920 2.062034 -0.750310
v -0.250138 2.063032 -0.250311
v -0.750138 2.062241 -0.250527
v 0.249861 2.063823 -0.250095
v 0.249426 2.065818 0.749903
v -0.750573 2.064236 0.749471
v -0.754262 4.328346 0.994952
v -1.004261 4.327950 0.994844
v -1.003499 4.324459 -0.755152
v -1.003390 4.323960 -1.005152
v -1.003935 4.326454 0.244845
v -1.003826 4.325955 -0.005154
v -1.003717 4.325456 -0.255153
v -1.003608 4.324957 -0.505153
v -1.004152 4.327452 0.744844
v -1.004043 4.326953 0.494845
v -0.753391 4.324355 -1.005044
v -0.753826 4.326351 -0.005046
v -0.753608 4.325353 -0.505045
v -0.754044 4.327348 0.494953
v -0.753935 4.326849 0.244954
v -0.753499 4.324854 -0.755044
v -0.753717 4.325852 -0.255045
v -0.754153 4.327847 0.744953
v -0.000300 1.824003 1.000277
v -0.999864 1.820426 -0.000153
v 1.000134 1.823590 0.000712
v 0.000571 1.820013 -0.999719
v 0.000135 1.822008 0.000279
v 0.499699 1.824794 1.000493
v -1.000081 1.821423 0.499846
v 1.000352 1.822592 -0.499287
v -0.499429 1.819221 -0.999935
v -0.500300 1.823212 1.000061
v -0.999646 1.819428 -0.500152
v 0.999916 1.824588 0.500710
v 0.500570 1.820804 -0.999503
v -0.000083 1.823005 0.500278
v 0.000353 1.821010 -0.499720
v -0.499864 1.821217 0.000063
v 0.500134 1.822799 0.000495
v 0.500352 1.821801 -0.499504
v -0.499646 1.820219 -0.499936
v -0.500082 1.822214 0.500062
v 0.499917 1.823797 0.500494
v 0.749699 1.825190 1.000601
v -1.000190 1.821922 0.749845
v 1.000460 1.822094 -0.749287
v -0.749428 1.818826 -1.000043
v -0.250300 1.823608 1.000169
v -0.999755 1.819927 -0.250153
v 1.000025 1.824089 0.250711
v 0.250570 1.820408 -0.999611
v -0.000192 1.823504 0.750278
v 0.000244 1.821509 -0.249720
v -0.749864 1.820821 -0.000045
v 0.250135 1.822403 0.000387
v 0.249699 1.824399 1.000385
v -0.999972 1.820924 0.249846
v 1.000243 1.823091 -0.249288
v -0.249429 1.819617 -0.999827
v -0.750299 1.822816 0.999953
v -0.999537 1.818929 -0.750152
v 0.999807 1.825087 0.750710
v 0.750570 1.821199 -0.999394
v 0.000026 1.822507 0.250279
v 0.000462 1.820511 -0.749719
v -0.249865 1.821612 0.000171
v 0.750134 1.823195 0.000603
v 0.500243 1.822300 -0.249504
v 0.500461 1.821303 -0.749503
v 0.250353 1.821406 -0.499612
v 0.750352 1.822197 -0.499396
v -0.499755 1.820718 -0.249936
v -0.499538 1.819720 -0.749935
v -0.749646 1.819824 -0.500044
v -0.249647 1.820615 -0.499828
v -0.500191 1.822713 0.750061
v -0.499973 1.821716 0.250062
v -0.750082 1.821819 0.499954
v -0.250082 1.822610 0.500170
v 0.499808 1.824295 0.750494
v 0.500026 1.823298 0.250495
v 0.249917 1.823401 0.500386
v 0.749916 1.824192 0.500602
v 0.750025 1.823693 0.250603
v 0.250026 1.822902 0.250387
v 0.249808 1.823900 0.750386
v -0.249973 1.822111 0.250171
v -0.749973 1.821320 0.249954
v -0.750190 1.822318 0.749953
v -0.249538 1.820116 -0.749827
v -0.749537 1.819325 -0.750044
v -0.749755 1.820322 -0.250045
v 0.750461 1.821698 -0.749395
v 0.250461 1.820907 -0.749611
v 0.250244 1.821905 -0.249612
v 0.750243 1.822696 -0.249396
v -0.249756 1.821113 -0.249828
v -0.250191 1.823109 0.750170
v 0.749807 1.824691 0.750602
v 0.752579 0.004053 1.004236
v 1.002578 0.004449 1.004344
v -0.997310 0.000785 0.753480
v -0.997419 0.001284 1.003480
v 1.003340 0.000957 -0.745652
v 1.003449 0.000458 -0.995652
v -0.746548 -0.002311 -0.996408
v -0.996548 -0.002706 -0.996516
v -0.747419 0.001680 1.003588
v -0.996657 -0.002208 -0.746517
v 1.002687 0.003950 0.754345
v 0.753449 0.000063 -0.995760
v -0.747311 0.001181 0.753588
v -0.746657 -0.001812 -0.746409
v 0.753341 0.000561 -0.745760
v 0.752687 0.003554 0.754237
vt 0.638705 0.551445
vt 0.600394 0.551445
vt 0.600394 0.972354
vt 0.638705 0.972354
vt 0.638705 0.495531
vt 0.638705 0.551445
vt 0.600394 0.551445
vt 0.562083 0.551445
vt 0.523771 0.551445
vt 0.485460 0.551445
vt 0.447149 0.551445
vt 0.408837 0.551445
vt 0.370526 0.551445
vt 0.332215 0.551445
vt 0.332215 0.495531
vt 0.370526 0.495531
vt 0.408837 0.495531
vt 0.447149 0.495531
vt 0.485460 0.495531
vt 0.523771 0.495531
vt 0.562083 0.495531
vt 0.600394 0.495531
vt 0.346755 0.495531
vt 0.346755 0.551445
vt 0.385066 0.551445
vt 0.423377 0.551445
vt 0.461689 0.551445
vt 0.500000 0.551445
vt 0.538311 0.551445
vt 0.576623 0.551445
vt 0.614934 0.551445
vt 0.653245 0.551445
vt 0.653245 0.495531
vt 0.614934 0.495531
vt 0.576623 0.495531
vt 0.538311 0.495531
vt 0.500000 0.495531
vt 0.461689 0.495531
vt 0.423377 0.495531
vt 0.385066 0.495531
vt 0.614934 0.495531
vt 0.653245 0.495531
vt 0.653245 -0.027646
vt 0.614934 -0.027646
vt 0.653245 0.495531
vt 0.653245 0.551445
vt 0.614934 0.551445
vt 0.576623 0.551445
vt 0.538311 0.551445
vt 0.500000 0.551445
vt 0.461689 0.551445
vt 0.423377 0.551445
vt 0.385066 0.551445
vt 0.346755 0.551445
vt 0.346755 0.495531
vt 0.385066 0.495531
vt 0.423377 0.495531
vt 0.461689 0.495531
vt 0.500000 0.495531
vt 0.538311 0.495531
vt 0.576623 0.495531
vt 0.614934 0.495531
vt 0.332215 0.495531
vt 0.332215 0.551445
vt 0.370526 0.551445
vt 0.408837 0.551445
vt 0.447149 0.551445
vt 0.485460 0.551445
vt 0.523771 0.551445
vt 0.562083 0.551445
vt 0.600394 0.551445
vt 0.638705 0.551445
vt 0.638705 0.495531
vt 0.600394 0.495531
vt 0.562083 0.495531
vt 0.523771 0.495531
vt 0.485460 0.495531
vt 0.447149 0.495531
vt 0.408837 0.495531
vt 0.370526 0.495531
vt 0.447149 0.326657
vt 0.485460 0.326657
vt 0.485460 0.268876
vt 0.447149 0.268876
vt 0.447149 0.557781
vt 0.485460 0.557781
vt 0.485460 0.500000
vt 0.447149 0.500000
vt 0.638705 -0.027646
vt 0.600394 -0.027646
vt 0.523771 0.557781
vt 0.562083 0.557781
vt 0.562083 0.500000
vt 0.523771 0.500000
vt 0.523771 0.673343
vt 0.562083 0.673343
vt 0.562083 0.615562
vt 0.523771 0.615562
vt 0.576623 0.495531
vt 0.576623 -0.027646
vt 0.370526 0.557781
vt 0.408837 0.557781
vt 0.408837 0.500000
vt 0.370526 0.500000
vt 0.370526 0.673343
vt 0.408837 0.673343
vt 0.408837 0.615562
vt 0.370526 0.615562
vt 0.447149 0.673343
vt 0.485460 0.673343
vt 0.485460 0.615562
vt 0.447149 0.615562
vt 0.370526 0.326657
vt 0.408837 0.326657
vt 0.408837 0.268876
vt 0.370526 0.268876
vt 0.370526 0.442219
vt 0.408837 0.442219
vt 0.408837 0.384438
vt 0.370526 0.384438
vt 0.447149 0.442219
vt 0.485460 0.442219
vt 0.485460 0.384438
vt 0.447149 0.384438
vt 0.523771 0.326657
vt 0.562083 0.326657
vt 0.562083 0.268876
vt 0.523771 0.268876
vt 0.523771 0.442219
vt 0.562083 0.442219
vt 0.562083 0.384438
vt 0.523771 0.384438
vt 0.385066 -0.027646
vt 0.423377 -0.027646
vt 0.600394 0.442219
vt 0.600394 0.384438
vt 0.600394 0.500000
vt 0.500000 -0.027646
vt 0.538311 -0.027646
vt 0.332215 0.442219
vt 0.332215 0.384438
vt 0.332215 0.500000
vt 0.332215 0.326657
vt 0.332215 0.268876
vt 0.408837 0.731124
vt 0.447149 0.731124
vt 0.485460 0.731124
vt 0.332215 0.673343
vt 0.332215 0.615562
vt 0.332215 0.731124
vt 0.370526 0.731124
vt 0.332215 0.557781
vt 0.600394 0.673343
vt 0.600394 0.615562
vt 0.562083 0.731124
vt 0.600394 0.731124
vt 0.538311 0.495531
vt 0.538311 -0.027646
vt 0.523771 0.731124
vt 0.600394 0.557781
vt 0.614934 -0.027646
vt 0.653245 -0.027646
vt 0.600394 0.326657
vt 0.600394 0.268876
vt 0.461689 -0.027646
vt 0.600394 0.326657
vt 0.638705 0.326657
vt 0.638705 0.268876
vt 0.600394 0.268876
vt 0.600394 0.557781
vt 0.638705 0.557781
vt 0.638705 0.500000
vt 0.600394 0.500000
vt 0.600394 0.673343
vt 0.638705 0.673343
vt 0.638705 0.615562
vt 0.600394 0.615562
vt 0.600394 0.442219
vt 0.638705 0.442219
vt 0.638705 0.384438
vt 0.600394 0.384438
vt 0.600394 0.731124
vt 0.638705 0.731124
vt 0.423377 0.495531
vt 0.461689 0.495531
vt 0.461689 -0.027646
vt 0.423377 -0.027646
vt 0.576623 -0.027646
vt 0.346755 0.495531
vt 0.385066 0.495531
vt 0.385066 -0.027646
vt 0.346755 -0.027646
vt 0.500000 0.495531
vt 0.500000 -0.027646
vt 0.346755 -0.027646
vt 0.600394 -0.027646
vt 0.638705 -0.027646
vt 0.523771 0.326657
vt 0.485460 0.326657
vt 0.485460 0.268876
vt 0.523771 0.268876
vt 0.523771 0.557781
vt 0.485460 0.557781
vt 0.485460 0.500000
vt 0.523771 0.500000
vt 0.370526 0.557781
vt 0.332215 0.557781
vt 0.332215 0.500000
vt 0.370526 0.500000
vt 0.447149 0.557781
vt 0.408837 0.557781
vt 0.408837 0.500000
vt 0.447149 0.500000
vt 0.447149 0.673343
vt 0.408837 0.673343
vt 0.408837 0.615562
vt 0.447149 0.615562
vt 0.370526 0.673343
vt 0.332215 0.673343
vt 0.332215 0.615562
vt 0.370526 0.615562
vt 0.600394 0.557781
vt 0.562083 0.557781
vt 0.562083 0.500000
vt 0.600394 0.500000
vt 0.600394 0.673343
vt 0.562083 0.673343
vt 0.562083 0.615562
vt 0.600394 0.615562
vt 0.523771 0.673343
vt 0.485460 0.673343
vt 0.485460 0.615562
vt 0.523771 0.615562
vt 0.600394 0.326657
vt 0.562083 0.326657
vt 0.562083 0.268876
vt 0.600394 0.268876
vt 0.600394 0.442219
vt 0.562083 0.442219
vt 0.562083 0.384438
vt 0.600394 0.384438
vt 0.523771 0.442219
vt 0.485460 0.442219
vt 0.485460 0.384438
vt 0.523771 0.384438
vt 0.447149 0.326657
vt 0.408837 0.326657
vt 0.408837 0.268876
vt 0.447149 0.268876
vt 0.447149 0.442219
vt 0.408837 0.442219
vt 0.408837 0.384438
vt 0.447149 0.384438
vt 0.370526 0.442219
vt 0.332215 0.442219
vt 0.332215 0.384438
vt 0.370526 0.384438
vt 0.638705 0.442219
vt 0.638705 0.384438
vt 0.638705 0.500000
vt 0.653245 0.551445
vt 0.614934 0.551445
vt 0.614934 0.972354
vt 0.653245 0.972354
vt 0.638705 0.326657
vt 0.562083 0.731124
vt 0.523771 0.731124
vt 0.485460 0.731124
vt 0.638705 0.673343
vt 0.638705 0.615562
vt 0.653245 0.972354
vt 0.614934 0.972354
vt 0.600394 0.731124
vt 0.638705 0.557781
vt 0.408837 0.731124
vt 0.370526 0.731124
vt 0.638705 0.972354
vt 0.600394 0.972354
vt 0.447149 0.731124
vt 0.370526 0.326657
vt 0.370526 0.268876
vt 0.332215 0.326657
vt 0.370526 0.326657
vt 0.332215 0.326657
vt 0.332215 0.268876
vt 0.370526 0.268876
vt 0.638705 0.326657
vt 0.600394 0.326657
vt 0.600394 0.268876
vt 0.638705 0.268876
vt 0.638705 0.731124
vt 0.600394 0.731124
vt 0.600394 0.673343
vt 0.638705 0.673343
vt 0.370526 0.731124
vt 0.332215 0.731124
vt 0.332215 0.673343
vt 0.370526 0.673343
vt 0.614934 0.551445
vt 0.653245 0.551445
vt 0.653245 0.972354
vt 0.614934 0.972354
vt 0.346755 0.972354
vt 0.385066 0.972354
vt 0.600394 0.551445
vt 0.638705 0.551445
vt 0.638705 0.972354
vt 0.600394 0.972354
vt 0.346755 0.551445
vt 0.385066 0.551445
vt 0.385066 0.972354
vt 0.346755 0.972354
vt 0.370526 0.972354
vt 0.332215 0.972354
vt 0.332215 0.972354
vt 0.370526 0.972354
vt 0.332215 0.551445
vt 0.370526 0.551445
vt 0.370526 0.972354
vt 0.332215 0.972354
vt 0.385066 0.972354
vt 0.346755 0.972354
vt 0.370526 0.551445
vt 0.332215 0.551445
vt 0.332215 0.972354
vt 0.370526 0.972354
vt 0.614934 0.972354
vt 0.653245 0.972354
vt 0.600394 0.972354
vt 0.638705 0.972354
vt 0.385066 0.551445
vt 0.346755 0.551445
vt 0.346755 0.972354
vt 0.385066 0.972354
vn 0.0004 -0.0020 -1.0000
vn -0.0004 0.0020 1.0000
vn 1.0000 0.0016 0.0004
vn -1.0000 -0.0016 -0.0004
vn -0.0016 1.0000 -0.0020
vn 0.0016 -1.0000 0.0020
usemtl Material
s off
f 126/1/1 170/2/1 193/3/1 183/4/1
f 4/5/2 3/6/2 141/7/2 113/8/2 129/9/2 104/10/2 137/11/2 109/12/2 125/13/2 7/14/2 8/15/2 48/16/2 20/17/2 36/18/2 11/19/2 44/20/2 16/21/2 32/22/2
f 8/23/3 7/24/3 143/25/3 115/26/3 131/27/3 106/28/3 139/29/3 111/30/3 127/31/3 5/32/3 6/33/3 46/34/3 18/35/3 34/36/3 9/37/3 42/38/3 14/39/3 30/40/3
f 79/41/3 47/42/3 96/43/3 101/44/3
f 2/45/4 1/46/4 142/47/4 114/48/4 130/49/4 105/50/4 138/51/4 110/52/4 126/53/4 3/54/4 4/55/4 49/56/4 21/57/4 37/58/4 12/59/4 45/60/4 17/61/4 33/62/4
f 6/63/1 5/64/1 144/65/1 116/66/1 132/67/1 107/68/1 140/69/1 112/70/1 128/71/1 1/72/1 2/73/1 47/74/1 19/75/1 35/76/1 10/77/1 43/78/1 15/79/1 31/80/1
f 84/81/5 38/82/5 11/83/5 36/84/5
f 83/85/5 39/86/5 13/87/5 52/88/5
f 47/74/1 2/73/1 89/89/1 96/90/1
f 81/91/5 54/92/5 25/93/5 41/94/5
f 80/95/5 55/96/5 26/97/5 56/98/5
f 57/99/3 79/41/3 101/44/3 98/100/3
f 78/101/5 58/102/5 24/103/5 40/104/5
f 77/105/5 59/106/5 27/107/5 60/108/5
f 76/109/5 51/110/5 23/111/5 61/112/5
f 75/113/5 62/114/5 20/115/5 48/116/5
f 74/117/5 63/118/5 28/119/5 64/120/5
f 73/121/5 50/122/5 22/123/5 65/124/5
f 72/125/5 66/126/5 16/127/5 44/128/5
f 71/129/5 67/130/5 29/131/5 68/132/5
f 21/57/4 49/56/4 94/133/4 95/134/4
f 67/130/5 70/135/5 69/136/5 29/131/5
f 25/93/5 53/137/5 70/135/5 67/130/5
f 45/60/4 12/59/4 91/138/4 92/139/4
f 50/122/5 71/129/5 68/132/5 22/123/5
f 13/87/5 41/94/5 71/129/5 50/122/5
f 41/94/5 25/93/5 67/130/5 71/129/5
f 38/82/5 72/125/5 44/128/5 11/83/5
f 22/123/5 68/132/5 72/125/5 38/82/5
f 68/132/5 29/131/5 66/126/5 72/125/5
f 63/118/5 73/121/5 65/124/5 28/119/5
f 24/103/5 52/88/5 73/121/5 63/118/5
f 52/88/5 13/87/5 50/122/5 73/121/5
f 42/140/5 74/117/5 64/120/5 14/141/5
f 9/142/5 40/104/5 74/117/5 42/140/5
f 40/104/5 24/103/5 63/118/5 74/117/5
f 30/143/5 75/113/5 48/116/5 8/144/5
f 14/141/5 64/120/5 75/113/5 30/143/5
f 64/120/5 28/119/5 62/114/5 75/113/5
f 59/106/5 76/109/5 61/112/5 27/107/5
f 15/145/5 43/146/5 76/109/5 59/106/5
f 43/146/5 10/147/5 51/110/5 76/109/5
f 46/148/5 77/105/5 60/108/5 18/149/5
f 6/150/5 31/151/5 77/105/5 46/148/5
f 31/151/5 15/145/5 59/106/5 77/105/5
f 34/152/5 78/101/5 40/104/5 9/142/5
f 18/149/5 60/108/5 78/101/5 34/152/5
f 60/108/5 27/107/5 58/102/5 78/101/5
f 55/96/5 79/153/5 57/154/5 26/97/5
f 19/155/5 47/156/5 79/153/5 55/96/5
f 82/157/3 57/99/3 98/100/3 102/158/3
f 51/110/5 80/95/5 56/98/5 23/111/5
f 10/147/5 35/159/5 80/95/5 51/110/5
f 35/159/5 19/155/5 55/96/5 80/95/5
f 39/86/5 81/91/5 41/94/5 13/87/5
f 23/111/5 56/98/5 81/91/5 39/86/5
f 56/98/5 26/97/5 54/92/5 81/91/5
f 54/92/5 82/160/5 53/137/5 25/93/5
f 26/97/5 57/154/5 82/160/5 54/92/5
f 2/45/4 33/62/4 88/161/4 89/162/4
f 58/102/5 83/85/5 52/88/5 24/103/5
f 27/107/5 61/112/5 83/85/5 58/102/5
f 61/112/5 23/111/5 39/86/5 83/85/5
f 62/114/5 84/81/5 36/84/5 20/115/5
f 28/119/5 65/124/5 84/81/5 62/114/5
f 65/124/5 22/123/5 38/82/5 84/81/5
f 66/126/5 85/163/5 32/164/5 16/127/5
f 29/131/5 69/136/5 85/163/5 66/126/5
f 37/58/4 21/57/4 95/134/4 90/165/4
f 103/166/5 94/167/5 87/168/5 86/169/5
f 102/170/5 92/171/5 91/172/5 97/173/5
f 101/174/5 88/175/5 93/176/5 98/177/5
f 100/178/5 90/179/5 95/180/5 99/181/5
f 97/173/5 91/172/5 90/179/5 100/178/5
f 96/182/5 89/183/5 88/175/5 101/174/5
f 98/177/5 93/176/5 92/171/5 102/170/5
f 99/181/5 95/180/5 94/167/5 103/166/5
f 69/184/3 70/185/3 100/186/3 99/187/3
f 33/62/4 17/61/4 93/188/4 88/161/4
f 32/189/3 85/190/3 103/191/3 86/192/3
f 12/59/4 37/58/4 90/165/4 91/138/4
f 70/185/3 53/193/3 97/194/3 100/186/3
f 49/56/4 4/55/4 87/195/4 94/133/4
f 4/5/2 32/22/2 86/196/2 87/197/2
f 17/61/4 45/60/4 92/139/4 93/188/4
f 85/190/3 69/184/3 99/187/3 103/191/3
f 53/193/3 82/157/3 102/158/3 97/194/3
f 179/198/6 133/199/6 104/200/6 129/201/6
f 178/202/6 134/203/6 108/204/6 147/205/6
f 177/206/6 139/207/6 106/208/6 148/209/6
f 176/210/6 149/211/6 120/212/6 136/213/6
f 175/214/6 150/215/6 121/216/6 151/217/6
f 174/218/6 127/219/6 111/220/6 152/221/6
f 173/222/6 153/223/6 119/224/6 135/225/6
f 172/226/6 154/227/6 122/228/6 155/229/6
f 171/230/6 146/231/6 118/232/6 156/233/6
f 170/234/6 157/235/6 113/236/6 141/237/6
f 169/238/6 158/239/6 123/240/6 159/241/6
f 168/242/6 145/243/6 117/244/6 160/245/6
f 167/246/6 161/247/6 109/248/6 137/249/6
f 166/250/6 162/251/6 124/252/6 163/253/6
f 165/254/6 131/255/6 115/256/6 164/257/6
f 162/251/6 165/254/6 164/257/6 124/252/6
f 120/212/6 148/209/6 165/254/6 162/251/6
f 148/209/6 106/208/6 131/255/6 165/254/6
f 145/243/6 166/250/6 163/253/6 117/244/6
f 108/204/6 136/213/6 166/250/6 145/243/6
f 136/213/6 120/212/6 162/251/6 166/250/6
f 133/199/6 167/246/6 137/249/6 104/200/6
f 117/244/6 163/253/6 167/246/6 133/199/6
f 163/253/6 124/252/6 161/247/6 167/246/6
f 158/239/6 168/242/6 160/245/6 123/240/6
f 119/224/6 147/205/6 168/242/6 158/239/6
f 147/205/6 108/204/6 145/243/6 168/242/6
f 138/258/6 169/238/6 159/241/6 110/259/6
f 105/260/6 135/225/6 169/238/6 138/258/6
f 135/225/6 119/224/6 158/239/6 169/238/6
f 128/261/3 172/262/3 194/263/3 187/264/3
f 110/259/6 159/241/6 170/234/6 126/265/6
f 159/241/6 123/240/6 157/235/6 170/234/6
f 154/227/6 171/230/6 156/233/6 122/228/6
f 112/266/6 140/267/6 171/230/6 154/227/6
f 140/267/6 107/268/6 146/231/6 171/230/6
f 142/269/6 172/226/6 155/229/6 114/270/6
f 142/47/4 1/46/4 188/271/4 190/272/4
f 128/273/6 112/266/6 154/227/6 172/226/6
f 130/274/6 173/222/6 135/225/6 105/260/6
f 114/270/6 155/229/6 173/222/6 130/274/6
f 155/229/6 122/228/6 153/223/6 173/222/6
f 150/215/6 174/218/6 152/221/6 121/216/6
f 116/275/6 144/276/6 174/218/6 150/215/6
f 141/7/2 3/6/2 184/277/2 189/278/2
f 146/231/6 175/214/6 151/217/6 118/232/6
f 107/268/6 132/279/6 175/214/6 146/231/6
f 132/279/6 116/275/6 150/215/6 175/214/6
f 134/203/6 176/210/6 136/213/6 108/204/6
f 118/232/6 151/217/6 176/210/6 134/203/6
f 151/217/6 121/216/6 149/211/6 176/210/6
f 149/211/6 177/206/6 148/209/6 120/212/6
f 121/216/6 152/221/6 177/206/6 149/211/6
f 152/221/6 111/220/6 139/207/6 177/206/6
f 153/223/6 178/202/6 147/205/6 119/224/6
f 122/228/6 156/233/6 178/202/6 153/223/6
f 156/233/6 118/232/6 134/203/6 178/202/6
f 157/235/6 179/198/6 129/201/6 113/236/6
f 123/240/6 160/245/6 179/198/6 157/235/6
f 160/245/6 117/244/6 133/199/6 179/198/6
f 161/247/6 180/280/6 125/281/6 109/248/6
f 124/252/6 164/257/6 180/280/6 161/247/6
f 164/257/6 115/256/6 143/282/6 180/280/6
f 196/283/6 191/284/6 182/285/6 181/286/6
f 183/287/6 193/288/6 189/289/6 184/290/6
f 188/291/6 187/292/6 194/293/6 190/294/6
f 192/295/6 186/296/6 185/297/6 195/298/6
f 174/299/4 144/300/4 192/301/4 195/302/4
f 143/25/3 7/24/3 182/303/3 191/304/3
f 172/305/2 142/306/2 190/307/2 194/308/2
f 125/309/4 180/310/4 196/311/4 181/312/4
f 7/14/2 125/13/2 181/313/2 182/314/2
f 144/65/1 5/64/1 186/315/1 192/316/1
f 127/317/2 174/318/2 195/319/2 185/320/2
f 3/54/4 126/53/4 183/321/4 184/322/4
f 180/323/1 143/324/1 191/325/1 196/326/1
f 5/32/3 127/31/3 185/327/3 186/328/3
f 1/72/1 128/71/1 187/329/1 188/330/1
f 170/331/3 141/332/3 189/333/3 193/334/3
