# Blender v3.0.1 OBJ File: 'edificioTexturizadoV3.blend'
# www.blender.org
mtllib apagador1.mtl
o caja.001_Cube.039
v 175.965988 22.344887 -9.734874
v 175.525558 22.344887 -9.734874
v 175.525558 22.344887 -10.838120
v 175.965988 22.344887 -10.838120
v 175.965988 20.869667 -10.838120
v 175.525558 20.869667 -10.838120
v 175.525558 20.869667 -10.838120
v 175.525558 22.344887 -10.838120
v 175.525558 22.344887 -9.734874
v 175.525558 20.869669 -9.734873
v 175.525558 20.869669 -9.734873
v 175.965988 20.869669 -9.734874
vt 1.166667 1.166667
vt 0.166667 1.166667
vt 0.166667 0.166667
vt 1.166667 0.166667
vt 1.166667 -0.166667
vt 1.166667 0.833333
vt 0.166667 0.833333
vt 0.166667 -0.166667
vt 0.166667 -0.166667
vt 0.166667 0.833333
vt 1.166667 0.833333
vt 1.166667 -0.166667
vt 0.125000 0.500000
vt 0.375000 0.500000
vt 0.375000 0.750000
vt 0.125000 0.750000
vt 0.625000 0.500000
vt 0.625000 0.750000
vt 0.375000 0.250000
vt 0.625000 0.250000
vt 0.375000 0.000000
vt 0.375000 0.250000
vt 0.375000 0.000000
vt 0.625000 0.000000
vt 0.625000 0.000000
vt 0.625000 0.250000
vn 0.0000 -1.0000 0.0000
vn 0.0000 0.0000 1.0000
vn 1.0000 0.0000 0.0000
vn -0.0000 1.0000 -0.0000
vn -1.0000 0.0000 0.0000
vn 0.0000 0.0000 0.0000
vn -0.0000 -0.0000 -1.0000
usemtl cubierta
s 1
f 1/1/1 2/2/1 3/3/1 4/4/1
f 5/5/2 4/6/2 3/7/2 6/8/2
f 7/9/3 8/10/3 9/11/3 10/12/3
f 11/13/4 12/14/4 5/15/4 6/16/4
f 12/14/5 1/17/5 4/18/5 5/15/5
f 11/19/6 2/20/6 1/17/7 12/14/7
f 7/21/6 10/22/6 11/19/6 6/23/6
f 8/24/6 7/21/6 6/23/6 3/25/6
f 10/22/6 9/26/6 2/20/6 11/19/6
f 9/26/6 8/24/6 3/25/6 2/20/6
o switch.004_Cube.042
v 175.692978 21.737642 -10.690096
v 175.696579 22.104696 -10.690678
v 175.919693 22.103573 -10.017404
v 175.916077 21.736519 -10.016822
v 175.544479 22.107458 -9.893060
v 175.540878 21.740404 -9.892476
v 175.321365 22.108583 -10.566332
v 175.317764 21.741529 -10.565750
vt 0.375000 0.000000
vt 0.625000 0.000000
vt 0.625000 0.250000
vt 0.375000 0.250000
vt 0.625000 0.500000
vt 0.375000 0.500000
vt 0.625000 0.750000
vt 0.375000 0.750000
vt 0.625000 1.000000
vt 0.375000 1.000000
vt 0.125000 0.500000
vt 0.125000 0.750000
vt 0.875000 0.500000
vt 0.875000 0.750000
vn 0.9492 -0.0098 -0.3146
vn 0.3146 -0.0016 0.9492
vn -0.9492 0.0098 0.3146
vn -0.3146 0.0016 -0.9492
vn -0.0098 -1.0000 0.0016
vn 0.0098 1.0000 -0.0016
usemtl cubierta.001
s 1
f 13/27/8 14/28/8 15/29/8 16/30/8
f 16/30/9 15/29/9 17/31/9 18/32/9
f 18/32/10 17/31/10 19/33/10 20/34/10
f 20/34/11 19/33/11 14/35/11 13/36/11
f 16/37/12 18/32/12 20/34/12 13/38/12
f 17/31/13 15/39/13 14/40/13 19/33/13
o switch.005_Cube.044
v 175.692978 21.131739 -10.690095
v 175.696579 21.498793 -10.690678
v 175.919693 21.497667 -10.017404
v 175.916077 21.130613 -10.016822
v 175.544479 21.501553 -9.893060
v 175.540878 21.134499 -9.892476
v 175.321365 21.502678 -10.566332
v 175.317764 21.135624 -10.565750
vt 0.375000 0.000000
vt 0.625000 0.000000
vt 0.625000 0.250000
vt 0.375000 0.250000
vt 0.625000 0.500000
vt 0.375000 0.500000
vt 0.625000 0.750000
vt 0.375000 0.750000
vt 0.625000 1.000000
vt 0.375000 1.000000
vt 0.125000 0.500000
vt 0.125000 0.750000
vt 0.875000 0.500000
vt 0.875000 0.750000
vn 0.9492 -0.0098 -0.3146
vn 0.3146 -0.0016 0.9492
vn -0.9492 0.0098 0.3146
vn -0.3146 0.0016 -0.9492
vn -0.0098 -1.0000 0.0016
vn 0.0098 1.0000 -0.0016
usemtl cubierta.002
s 1
f 21/41/14 22/42/14 23/43/14 24/44/14
f 24/44/15 23/43/15 25/45/15 26/46/15
f 26/46/16 25/45/16 27/47/16 28/48/16
f 28/48/17 27/47/17 22/49/17 21/50/17
f 24/51/18 26/46/18 28/48/18 21/52/18
f 25/45/19 23/53/19 22/54/19 27/47/19
