# Blender v3.0.1 OBJ File: 'edificioTexturizadoV3.blend'
# www.blender.org
mtllib puertaExterior.mtl
o MarcoPuerta_Cube.004
v 175.835663 7.273223 7.103197
v 175.835663 25.531488 7.103200
v 175.835663 25.531490 -2.805828
v 175.835663 7.273225 -2.805831
v 175.835663 7.273225 -2.461339
v 175.835663 24.927584 -2.461336
v 175.835663 24.927582 6.758708
v 175.835663 7.273223 6.758705
v 176.418823 25.531490 -2.805828
v 176.418823 7.273225 -2.805831
v 176.418823 25.531488 7.103200
v 176.418823 7.273223 7.103197
v 176.418823 7.273223 6.758705
v 176.418823 24.927582 6.758708
v 176.418823 24.927584 -2.461336
v 176.418823 7.273225 -2.461339
vt 0.186024 0.132285
vt 0.260433 0.685828
vt 0.826378 0.654849
vt 0.789173 0.132285
vt 0.642794 0.144686
vt 0.717203 0.562059
vt 0.400612 0.590744
vt 0.320002 0.126084
vt 0.000000 0.008269
vt 0.000000 1.008269
vt 1.000000 1.008269
vt 1.000000 0.008269
vt 0.658957 0.219096
vt 0.696162 0.605218
vt 0.192224 0.667226
vt 0.179823 0.212895
vt 0.245592 0.237698
vt 0.245592 0.578343
vt 0.617990 0.522536
vt 0.593187 0.250100
vt 1.000000 0.008269
vt 1.000000 1.008269
vt 0.000000 1.008269
vt 0.000000 0.008269
vt 0.000000 1.000000
vt 1.000000 1.000000
vt 1.000000 0.965234
vt 0.000000 0.965234
vt 1.000000 1.000000
vt 0.000000 1.000000
vt 0.000000 0.000000
vt 1.000000 0.000000
vt 1.000000 0.975193
vt 0.000000 0.975193
vt 0.000000 0.008269
vt 1.000000 0.008269
vt 1.000000 0.034766
vt 0.000000 0.034766
vt 0.000000 0.965234
vt 1.000000 0.965234
vt 0.000000 0.975193
vt 1.000000 0.975193
vt 1.000000 0.008269
vt 0.000000 0.008269
vt 0.000000 0.034766
vt 1.000000 0.034766
vt 1.000000 0.000000
vt 0.000000 0.000000
vn -1.0000 0.0000 0.0000
vn 0.0000 0.0000 -1.0000
vn 1.0000 -0.0000 0.0000
vn 0.0000 -0.0000 1.0000
vn 0.0000 -1.0000 0.0000
vn 0.0000 1.0000 0.0000
usemtl Material.402
s 1
f 1/1/1 2/2/1 3/3/1 4/4/1 5/5/1 6/6/1 7/7/1 8/8/1
f 4/9/2 3/10/2 9/11/2 10/12/2
f 10/13/3 9/14/3 11/15/3 12/16/3 13/17/3 14/18/3 15/19/3 16/20/3
f 12/21/4 11/22/4 2/23/4 1/24/4
f 4/25/5 10/26/5 16/27/5 5/28/5
f 9/29/6 3/30/6 2/31/6 11/32/6
f 15/33/4 6/34/4 5/35/4 16/36/4
f 14/37/5 7/38/5 6/39/5 15/40/5
f 7/41/2 14/42/2 13/43/2 8/44/2
f 8/45/5 13/46/5 12/47/5 1/48/5
o Puerta_Cube.006
v 175.948425 7.269899 6.758705
v 175.948425 24.927582 6.758708
v 175.948425 24.927584 -2.461336
v 175.948425 7.269901 -2.461339
v 176.306061 24.927584 -2.461336
v 176.306061 7.269901 -2.461339
v 176.306061 24.927582 6.758708
v 176.306061 7.269899 6.758705
v 175.742874 16.306370 -0.926310
v 175.742874 18.247570 -0.926310
v 175.742874 18.247570 -1.939919
v 175.742874 16.306372 -1.939919
v 176.511612 18.247570 -1.939919
v 176.511612 16.306372 -1.939919
v 176.511612 18.247570 -0.926310
v 176.511612 16.306370 -0.926310
v 174.869202 17.483532 1.200460
v 175.152130 17.483532 1.200460
v 175.152130 17.483532 -1.102815
v 177.102356 17.483532 -1.102815
v 177.102356 17.483532 1.200460
v 177.385284 17.483532 1.200460
v 177.385284 17.483532 -1.745457
v 174.869202 17.483532 -1.745457
v 177.385284 17.070408 -1.745457
v 174.869202 17.070408 -1.745457
v 177.385284 17.070408 1.200460
v 177.102356 17.070408 1.200460
v 177.102356 17.070408 -1.102815
v 175.152130 17.070408 -1.102815
v 175.152130 17.070408 1.200460
v 174.869202 17.070408 1.200460
vt -0.194240 -0.033363
vt -0.194240 0.966637
vt 0.805760 0.966637
vt 0.805760 -0.033363
vt 0.474429 -0.033363
vt 0.474429 0.966637
vt 0.525571 0.966637
vt 0.525571 -0.033363
vt 0.723649 -0.012220
vt 0.723649 0.987780
vt 0.207310 0.981579
vt 0.182507 -0.018421
vt 0.525571 -0.033363
vt 0.525571 0.966637
vt 0.474429 0.966637
vt 0.474429 -0.033363
vt 0.474429 0.805760
vt 0.525571 0.805760
vt 0.525571 -0.194240
vt 0.474429 -0.194240
vt 0.525571 0.805760
vt 0.474429 0.805760
vt 0.474429 -0.194240
vt 0.525571 -0.194240
vt 0.818580 0.453078
vt 0.818580 0.508235
vt 0.873738 0.508235
vt 0.873738 0.453078
vt 0.445032 0.478395
vt 0.445032 0.588331
vt 0.554968 0.588331
vt 0.554968 0.478395
vt 0.856906 0.525717
vt 0.856906 0.553411
vt 0.829212 0.553411
vt 0.829212 0.525717
vt 0.554968 0.478395
vt 0.554968 0.588331
vt 0.445032 0.588331
vt 0.445032 0.478395
vt 0.445032 0.749207
vt 0.554968 0.749207
vt 0.554968 0.639272
vt 0.445032 0.639272
vt 0.554968 0.749207
vt 0.445032 0.749207
vt 0.445032 0.639272
vt 0.554968 0.639272
vt 0.054537 0.000000
vt 0.054537 0.112447
vt 0.836390 0.112447
vt 0.836390 0.887553
vt 0.054537 0.887553
vt 0.054537 1.000000
vt 0.985635 0.990157
vt 0.980713 0.000000
vt 0.000000 0.000000
vt 0.000000 1.000000
vt 1.000000 1.000000
vt 1.000000 0.000000
vt 1.054537 0.000000
vt 1.054537 1.000000
vt 0.054537 1.000000
vt 0.054537 0.887553
vt 0.836390 0.887553
vt 0.836390 0.112447
vt 0.054537 0.112447
vt 0.054537 0.000000
vt 1.000000 0.000000
vt 1.000000 0.112447
vt 0.000000 0.112447
vt 0.000000 0.000000
vt -0.006668 0.996453
vt 0.993331 0.996453
vt 0.993331 -0.003547
vt -0.006668 -0.003547
vt 1.000000 1.054537
vt 0.000000 1.054537
vt 0.000000 0.054537
vt 1.000000 0.054537
vt 0.000000 0.112447
vt 1.000000 0.112447
vt 1.000000 0.887553
vt 0.000000 0.887553
vt 0.000000 0.887553
vt 1.000000 0.887553
vt 1.000000 1.000000
vt 0.000000 1.000000
vt 1.000000 0.836390
vt 0.000000 0.836390
vt 0.000000 0.054537
vt 1.000000 0.054537
vt 0.000000 0.836390
vt 1.000000 0.836390
vt 1.000000 0.054537
vt 0.000000 0.054537
vn -1.0000 0.0000 0.0000
vn 0.0000 0.0000 -1.0000
vn 1.0000 0.0000 0.0000
vn 0.0000 -0.0000 1.0000
vn 0.0000 -1.0000 -0.0000
vn 0.0000 1.0000 0.0000
usemtl Material.403
s 1
f 17/49/7 18/50/7 19/51/7 20/52/7
f 20/53/8 19/54/8 21/55/8 22/56/8
f 22/57/9 21/58/9 23/59/9 24/60/9
f 24/61/10 23/62/10 18/63/10 17/64/10
f 20/65/11 22/66/11 24/67/11 17/68/11
f 21/69/12 19/70/12 18/71/12 23/72/12
usemtl Material.404
f 25/73/7 26/74/7 27/75/7 28/76/7
f 28/77/8 27/78/8 29/79/8 30/80/8
f 30/81/9 29/82/9 31/83/9 32/84/9
f 32/85/10 31/86/10 26/87/10 25/88/10
f 28/89/11 30/90/11 32/91/11 25/92/11
f 29/93/12 27/94/12 26/95/12 31/96/12
usemtl Material.405
f 33/97/12 34/98/12 35/99/12 36/100/12 37/101/12 38/102/12 39/103/12 40/104/12
f 40/105/8 39/106/8 41/107/8 42/108/8
f 42/109/11 41/110/11 43/111/11 44/112/11 45/113/11 46/114/11 47/115/11 48/116/11
f 48/117/10 47/118/10 34/119/10 33/120/10
f 40/121/7 42/122/7 48/123/7 33/124/7
f 41/125/9 39/126/9 38/127/9 43/128/9
f 35/129/10 46/130/10 45/131/10 36/132/10
f 37/133/10 44/134/10 43/135/10 38/136/10
f 46/137/9 35/138/9 34/139/9 47/140/9
f 36/141/7 45/142/7 44/143/7 37/144/7
