# Blender v3.0.1 OBJ File: 'botequin.blend'
# www.blender.org
mtllib botequin.mtl
o Cube_Cube.001
v -2.378056 0.003782 1.000000
v -2.378056 3.304012 1.000000
v 2.378056 0.003782 1.000000
v 2.378056 3.304012 1.000000
v -2.378056 0.003782 1.285784
v -2.120648 0.182395 1.394027
v -2.120648 3.125398 1.394027
v -2.378056 3.304012 1.285784
v 2.378056 3.304012 1.285784
v 2.120648 3.125398 1.394027
v 2.120648 0.182395 1.394027
v 2.378056 0.003782 1.285784
v -2.297888 0.059410 -1.000000
v -2.378056 0.003782 -0.966288
v -2.297888 3.248384 -1.000000
v -2.378056 3.304012 -0.966288
v 2.297888 0.059410 -1.000000
v 2.378056 0.003782 -0.966288
v 2.378056 3.304012 -0.966288
v 2.297888 3.248384 -1.000000
v -2.378056 0.003782 1.000000
v 2.378056 0.003782 1.000000
v -2.378056 3.304012 1.000000
v 2.378056 3.304012 1.000000
v 1.387167 3.192063 0.764927
v 1.585487 3.378831 0.388244
v 1.387167 3.192063 -0.667758
v 1.585487 3.378831 -0.291075
v 2.141463 3.192063 0.764927
v 1.943143 3.378831 0.388244
v 2.141463 3.192063 -0.667758
v 1.943143 3.378831 -0.291075
v 1.585487 3.414880 0.388244
v 1.585487 3.414880 -0.291075
v 1.943143 3.414880 -0.291075
v 1.943143 3.414880 0.388244
v -0.770800 3.265509 0.323082
v -0.770800 3.690176 0.323082
v -0.770800 3.265509 -0.101585
v -0.770800 3.690176 -0.101585
v -0.346133 3.265509 0.323082
v -0.346133 3.690176 0.323082
v -0.346133 3.265509 -0.101585
v -0.346133 3.690176 -0.101585
v -0.770800 3.817678 0.323082
v -0.770800 3.817678 -0.101585
v -0.346133 3.817678 -0.101585
v -0.346133 3.817678 0.323082
v -0.029753 3.690176 -0.101585
v -0.029753 3.690176 0.323082
v -0.029753 3.817678 -0.101585
v -0.029753 3.817678 0.323082
v 0.702099 3.265509 0.323082
v 0.702099 3.690176 0.323082
v 0.702099 3.265509 -0.101585
v 0.702099 3.690176 -0.101585
v 0.277432 3.265509 0.323082
v 0.277432 3.690176 0.323082
v 0.277432 3.265509 -0.101585
v 0.277432 3.690176 -0.101585
v 0.702099 3.817678 0.323082
v 0.702099 3.817678 -0.101585
v 0.277432 3.817678 -0.101585
v 0.277432 3.817678 0.323082
v -0.038948 3.690176 -0.101585
v -0.038948 3.690176 0.323082
v -0.038948 3.817678 -0.101585
v -0.038948 3.817678 0.323082
v -2.108757 3.192063 0.764927
v -1.910437 3.378831 0.388244
v -2.108757 3.192063 -0.667758
v -1.910437 3.378831 -0.291075
v -1.354461 3.192063 0.764927
v -1.552781 3.378831 0.388244
v -1.354461 3.192063 -0.667758
v -1.552781 3.378831 -0.291075
v -1.910437 3.414880 0.388244
v -1.910437 3.414880 -0.291075
v -1.552781 3.414880 -0.291075
v -1.552781 3.414880 0.388244
v -0.264172 0.627465 1.484244
v -0.264172 2.682177 1.484244
v -0.264172 0.627465 1.361916
v -0.264172 2.682177 1.361916
v 0.295598 0.627465 1.484244
v 0.295598 2.682177 1.484244
v 0.295598 0.627465 1.361916
v 0.295598 2.682177 1.361916
v -1.011725 1.934401 1.484244
v 1.042985 1.935012 1.484244
v -1.011725 1.934401 1.361916
v 1.042985 1.935012 1.361916
v -1.011559 1.374631 1.484244
v 1.043152 1.375242 1.484244
v -1.011559 1.374631 1.361916
v 1.043152 1.375242 1.361916
vt 0.199083 0.096375
vt 0.199083 0.903625
vt 0.800917 0.903625
vt 0.800917 0.096375
vt 0.811415 0.280895
vt 0.188585 0.280895
vt 0.188585 0.280895
vt 0.811415 0.280895
vt 0.188585 0.161522
vt 0.811415 0.161522
vt 0.336650 0.082294
vt 0.336650 0.917706
vt 0.948981 0.917706
vt 0.948981 0.082294
vt 0.811415 0.280895
vt 0.811415 0.280895
vt 0.188585 0.280895
vt 0.811415 0.161522
vt 0.188585 0.161522
vt 0.336650 0.917706
vt 0.336650 0.082294
vt 0.247652 0.082294
vt 0.247652 0.917706
vt 0.336650 0.082294
vt 0.336650 0.917706
vt 0.247652 0.917706
vt 0.247652 0.082294
vt 0.222294 0.127508
vt 0.222294 0.872492
vt 0.188585 0.917706
vt 0.188585 0.082294
vt 0.777707 0.872492
vt 0.777707 0.127508
vt 0.811415 0.082294
vt 0.811415 0.917706
vt 0.188585 0.082294
vt 0.188585 0.917706
vt 0.811415 1.102226
vt 0.188585 1.102226
vt 0.199083 1.116308
vt 0.800917 1.116308
vt 0.188585 1.102226
vt 0.811415 1.102226
vt 0.800917 1.116308
vt 0.199083 1.116308
vt 0.811415 0.917706
vt 0.811415 0.082294
vt 0.188585 0.280895
vt 0.948981 0.082294
vt 0.948981 0.917706
vt 0.336650 0.917706
vt 0.336650 0.082294
vt 0.213432 -0.135285
vt 0.364121 0.702928
vt 0.635879 0.702928
vt 0.786568 -0.135285
vt 0.213432 -0.135285
vt 0.364121 0.702928
vt 0.635879 0.702928
vt 0.786568 -0.135285
vt 0.364121 0.702928
vt 0.213432 -0.135285
vt 0.786568 -0.135285
vt 0.635879 0.702928
vt 0.213432 0.919106
vt 0.786568 0.919106
vt 0.786568 0.080894
vt 0.213432 0.080894
vt 0.635879 0.864715
vt 0.364121 0.864715
vt 0.635879 0.698722
vt 0.364121 0.698722
vt 0.364121 0.301278
vt 0.635879 0.301278
vt 0.364121 0.864715
vt 0.635879 0.864715
vt 0.635879 0.864715
vt 0.364121 0.864715
vt 0.304081 -0.011713
vt 0.304081 0.561350
vt 0.695919 0.561350
vt 0.695919 -0.011713
vt 0.185549 -0.011713
vt 0.185549 0.561350
vt 0.577387 0.561350
vt 0.577387 -0.011713
vt 0.695919 -0.011713
vt 0.695919 0.561350
vt 0.304081 0.561350
vt 0.304081 -0.011713
vt 0.577387 -0.011713
vt 0.577387 0.561350
vt 0.185549 0.561350
vt 0.185549 -0.011713
vt 0.185549 0.786532
vt 0.577387 0.786532
vt 0.577387 0.213468
vt 0.185549 0.213468
vt 0.185549 0.733407
vt 0.577387 0.733407
vt 0.577387 0.786532
vt 0.185549 0.786532
vt 0.185549 0.213468
vt 0.577387 0.213468
vt 0.869310 0.213468
vt 0.869310 0.786532
vt 0.304081 0.733407
vt 0.695919 0.733407
vt 0.577387 0.733407
vt 0.185549 0.733407
vt 0.304081 0.561350
vt 0.695919 0.561350
vt 0.695919 0.733407
vt 0.304081 0.733407
vt 0.577387 0.213468
vt 0.577387 0.786532
vt 0.869310 0.786532
vt 0.869310 0.213468
vt 0.869310 0.733407
vt 0.869310 0.561350
vt 0.869310 0.561350
vt 0.869310 0.733407
vt 0.304081 -0.011713
vt 0.304081 0.561350
vt 0.695919 0.561350
vt 0.695919 -0.011713
vt 0.185549 -0.011713
vt 0.185549 0.561350
vt 0.577387 0.561350
vt 0.577387 -0.011713
vt 0.695919 -0.011713
vt 0.695919 0.561350
vt 0.304081 0.561350
vt 0.304081 -0.011713
vt 0.577387 -0.011713
vt 0.577387 0.561350
vt 0.185549 0.561350
vt 0.185549 -0.011713
vt 0.185549 0.786532
vt 0.577387 0.786532
vt 0.577387 0.213468
vt 0.185549 0.213468
vt 0.185549 0.733407
vt 0.577387 0.733407
vt 0.577387 0.786532
vt 0.185549 0.786532
vt 0.185549 0.213468
vt 0.577387 0.213468
vt 0.869310 0.213468
vt 0.869310 0.786532
vt 0.304081 0.733407
vt 0.695919 0.733407
vt 0.577387 0.733407
vt 0.185549 0.733407
vt 0.304081 0.561350
vt 0.695919 0.561350
vt 0.695919 0.733407
vt 0.304081 0.733407
vt 0.577387 0.213468
vt 0.577387 0.786532
vt 0.869310 0.786532
vt 0.869310 0.213468
vt 0.869310 0.733407
vt 0.869310 0.561350
vt 0.869310 0.561350
vt 0.869310 0.733407
vt 0.213432 -0.135285
vt 0.364121 0.702928
vt 0.635879 0.702928
vt 0.786568 -0.135285
vt 0.213432 -0.135285
vt 0.364121 0.702928
vt 0.635879 0.702928
vt 0.786568 -0.135285
vt 0.364121 0.702928
vt 0.213432 -0.135285
vt 0.786568 -0.135285
vt 0.635879 0.702928
vt 0.213432 0.919106
vt 0.786568 0.919106
vt 0.786568 0.080894
vt 0.213432 0.080894
vt 0.635879 0.864715
vt 0.364121 0.864715
vt 0.635879 0.698722
vt 0.364121 0.698722
vt 0.364121 0.301278
vt 0.635879 0.301278
vt 0.364121 0.864715
vt 0.635879 0.864715
vt 0.635879 0.864715
vt 0.364121 0.864715
vt 0.177755 0.000000
vt 0.177755 1.000000
vt 0.822245 1.000000
vt 0.822245 0.000000
vt 0.177755 0.000000
vt 0.177755 1.000000
vt 0.822245 1.000000
vt 0.822245 0.000000
vt 0.177755 1.000000
vt 0.177755 0.000000
vt 0.822245 0.000000
vt 0.822245 1.000000
vt 0.177755 1.000000
vt 0.822245 1.000000
vt 0.177755 0.000000
vt 0.822245 0.000000
vt 0.000000 0.000000
vt 0.000000 1.000000
vt 1.000000 1.000000
vt 1.000000 0.000000
vt 0.000000 0.000000
vt 0.000000 1.000000
vt 1.000000 1.000000
vt 1.000000 0.000000
vt 0.000000 1.000000
vt 0.000000 0.000000
vt 1.000000 0.000000
vt 1.000000 1.000000
vt 0.000000 1.000000
vt 1.000000 1.000000
vt 0.000000 0.000000
vt 1.000000 0.000000
vn 0.0000 0.0000 -1.0000
vn 0.0000 0.0000 1.0000
vn 0.0000 1.0000 0.0000
vn -1.0000 0.0000 0.0000
vn 0.0000 -1.0000 0.0000
vn 1.0000 0.0000 0.0000
vn -0.3876 0.0000 0.9218
vn 0.3876 0.0000 0.9218
vn 0.0000 -0.5183 0.8552
vn 0.0000 0.5183 0.8552
vn -0.3876 0.0000 -0.9218
vn 0.0000 -0.5183 -0.8552
vn 0.0000 0.5183 -0.8552
vn 0.3876 0.0000 -0.9218
vn -0.6856 0.7280 0.0000
vn 0.0000 0.8959 -0.4442
vn 0.6856 0.7280 0.0000
vn 0.0000 0.8959 0.4442
vn -0.0003 1.0000 0.0000
vn 0.0003 -1.0000 0.0000
vn -1.0000 -0.0003 0.0000
vn 1.0000 0.0003 0.0000
usemtl Material.001
s off
f 13/1/1 15/2/1 20/3/1 17/4/1
f 24/5/2 23/6/2 2/7/2 4/8/2
f 4/8/3 2/7/3 8/9/3 9/10/3
f 21/11/4 23/12/4 16/13/4 14/14/4
f 22/15/2 24/5/2 4/8/2 3/16/2
f 1/17/5 3/16/5 12/18/5 5/19/5
f 2/20/4 1/21/4 5/22/4 8/23/4
f 3/24/6 4/25/6 9/26/6 12/27/6
f 6/28/7 7/29/7 8/30/7 5/31/7
f 10/32/8 11/33/8 12/34/8 9/35/8
f 5/31/9 12/34/9 11/33/9 6/28/9
f 9/35/10 8/30/10 7/29/10 10/32/10
f 11/33/2 10/32/2 7/29/2 6/28/2
f 15/2/11 13/1/11 14/36/11 16/37/11
f 18/38/12 14/39/12 13/40/12 17/41/12
f 16/42/13 19/43/13 20/44/13 15/45/13
f 19/46/14 18/47/14 17/4/14 20/3/14
f 21/48/2 22/15/2 3/16/2 1/17/2
f 14/39/5 18/38/5 22/15/5 21/48/5
f 18/49/6 19/50/6 24/51/6 22/52/6
f 1/17/2 2/7/2 23/6/2 21/48/2
f 19/43/3 16/42/3 23/6/3 24/5/3
usemtl Material.002
f 25/53/15 26/54/15 28/55/15 27/56/15
f 27/57/16 28/58/16 32/59/16 31/60/16
f 31/60/17 32/59/17 30/61/17 29/62/17
f 29/63/18 30/64/18 26/54/18 25/53/18
f 27/65/5 31/66/5 29/67/5 25/68/5
f 30/61/6 32/59/6 35/69/6 36/70/6
f 35/71/3 34/72/3 33/73/3 36/74/3
f 28/55/4 26/54/4 33/75/4 34/76/4
f 26/54/2 30/64/2 36/77/2 33/75/2
f 32/59/1 28/58/1 34/78/1 35/69/1
usemtl Material.004
f 37/79/4 38/80/4 40/81/4 39/82/4
f 39/83/1 40/84/1 44/85/1 43/86/1
f 43/87/6 44/88/6 42/89/6 41/90/6
f 41/91/2 42/92/2 38/93/2 37/94/2
f 39/95/5 43/96/5 41/97/5 37/98/5
f 44/85/1 40/84/1 46/99/1 47/100/1
f 47/101/3 46/102/3 45/103/3 48/104/3
f 47/101/3 48/104/3 52/105/3 51/106/3
f 40/81/4 38/80/4 45/107/4 46/108/4
f 38/93/2 42/92/2 48/109/2 45/110/2
f 50/111/6 49/112/6 51/113/6 52/114/6
f 42/115/5 44/116/5 49/117/5 50/118/5
f 44/85/1 47/100/1 51/119/1 49/120/1
f 48/109/2 42/92/2 50/121/2 52/122/2
usemtl Material.005
f 53/123/4 54/124/4 56/125/4 55/126/4
f 55/127/2 56/128/2 60/129/2 59/130/2
f 59/131/6 60/132/6 58/133/6 57/134/6
f 57/135/1 58/136/1 54/137/1 53/138/1
f 55/139/3 59/140/3 57/141/3 53/142/3
f 60/129/2 56/128/2 62/143/2 63/144/2
f 63/145/5 62/146/5 61/147/5 64/148/5
f 63/145/5 64/148/5 68/149/5 67/150/5
f 56/125/4 54/124/4 61/151/4 62/152/4
f 54/137/1 58/136/1 64/153/1 61/154/1
f 66/155/6 65/156/6 67/157/6 68/158/6
f 58/159/3 60/160/3 65/161/3 66/162/3
f 60/129/2 63/144/2 67/163/2 65/164/2
f 64/153/1 58/136/1 66/165/1 68/166/1
usemtl Material.003
f 69/167/15 70/168/15 72/169/15 71/170/15
f 71/171/16 72/172/16 76/173/16 75/174/16
f 75/174/17 76/173/17 74/175/17 73/176/17
f 73/177/18 74/178/18 70/168/18 69/167/18
f 71/179/5 75/180/5 73/181/5 69/182/5
f 74/175/6 76/173/6 79/183/6 80/184/6
f 79/185/3 78/186/3 77/187/3 80/188/3
f 72/169/4 70/168/4 77/189/4 78/190/4
f 70/168/2 74/178/2 80/191/2 77/189/2
f 76/173/1 72/172/1 78/192/1 79/183/1
usemtl Material.007
f 81/193/4 82/194/4 84/195/4 83/196/4
f 83/197/1 84/198/1 88/199/1 87/200/1
f 87/200/6 88/199/6 86/201/6 85/202/6
f 85/203/2 86/204/2 82/194/2 81/193/2
f 83/205/5 87/206/5 85/203/5 81/193/5
f 88/199/3 84/198/3 82/207/3 86/208/3
usemtl Material.006
f 89/209/19 90/210/19 92/211/19 91/212/19
f 91/213/1 92/214/1 96/215/1 95/216/1
f 95/216/20 96/215/20 94/217/20 93/218/20
f 93/219/2 94/220/2 90/210/2 89/209/2
f 91/221/21 95/222/21 93/219/21 89/209/21
f 96/215/22 92/214/22 90/223/22 94/224/22
