# Blender v3.0.1 OBJ File: 'puertaExterior.blend'
# www.blender.org
mtllib puertaExterior.mtl
o MarcoPuerta_Cube.004
v -0.096112 -0.005513 -0.005690
v -0.096112 5.882867 -0.005690
v -0.096112 -0.005513 -2.828750
v -0.096112 5.882867 -2.828750
v 0.096112 -0.005513 -0.005690
v 0.096112 5.882867 -0.005690
v 0.096112 -0.005513 -2.828750
v 0.096112 5.882867 -2.828750
v 0.096112 -0.005513 -0.103835
v -0.096112 -0.005513 -0.103835
v 0.096112 5.688104 -0.103835
v -0.096112 5.688104 -0.103835
v 0.096112 5.688104 -2.730605
v -0.096112 5.688104 -2.730605
v 0.096112 -0.005513 -2.730605
v -0.096112 -0.005513 -2.730605
vt 0.186024 0.132285
vt 0.260433 0.685828
vt 0.826378 0.654849
vt 0.789173 0.132285
vt 0.642794 0.144686
vt 0.717203 0.562059
vt 0.400612 0.590744
vt 0.320002 0.126084
vt 0.000000 0.008269
vt 0.000000 1.008269
vt 1.000000 1.008269
vt 1.000000 0.008269
vt 0.658957 0.219096
vt 0.696162 0.605218
vt 0.192224 0.667226
vt 0.179823 0.212895
vt 0.245592 0.237698
vt 0.245592 0.578343
vt 0.617990 0.522536
vt 0.593187 0.250100
vt 1.000000 0.008269
vt 1.000000 1.008269
vt 0.000000 1.008269
vt 0.000000 0.008269
vt 0.000000 1.000000
vt 1.000000 1.000000
vt 1.000000 0.965234
vt 0.000000 0.965234
vt 1.000000 1.000000
vt 0.000000 1.000000
vt 0.000000 0.000000
vt 1.000000 0.000000
vt 1.000000 0.975193
vt 0.000000 0.975193
vt 0.000000 0.008269
vt 1.000000 0.008269
vt 1.000000 0.034766
vt 0.000000 0.034766
vt 0.000000 0.965234
vt 1.000000 0.965234
vt 0.000000 0.975193
vt 1.000000 0.975193
vt 1.000000 0.008269
vt 0.000000 0.008269
vt 0.000000 0.034766
vt 1.000000 0.034766
vt 1.000000 0.000000
vt 0.000000 0.000000
vn -1.0000 -0.0000 0.0000
vn 0.0000 0.0000 -1.0000
vn 1.0000 -0.0000 0.0000
vn 0.0000 0.0000 1.0000
vn 0.0000 -1.0000 0.0000
vn 0.0000 1.0000 0.0000
usemtl Material.002
s off
f 1/1/1 2/2/1 4/3/1 3/4/1 16/5/1 14/6/1 12/7/1 10/8/1
f 3/9/2 4/10/2 8/11/2 7/12/2
f 7/13/3 8/14/3 6/15/3 5/16/3 9/17/3 11/18/3 13/19/3 15/20/3
f 5/21/4 6/22/4 2/23/4 1/24/4
f 3/25/5 7/26/5 15/27/5 16/28/5
f 8/29/6 4/30/6 2/31/6 6/32/6
f 13/33/4 14/34/4 16/35/4 15/36/4
f 11/37/5 12/38/5 14/39/5 13/40/5
f 12/41/2 11/42/2 9/43/2 10/44/2
f 10/45/5 9/46/5 5/47/5 1/48/5
o Puerta_Cube.006
v -0.126694 2.907721 -2.293279
v -0.126694 3.533767 -2.293279
v -0.126694 2.907721 -2.582054
v -0.126694 3.533767 -2.582054
v 0.126694 2.907721 -2.293279
v 0.126694 3.533767 -2.293279
v 0.126694 2.907721 -2.582054
v 0.126694 3.533767 -2.582054
v -0.058939 -0.006585 -0.103835
v -0.058939 5.688104 -0.103835
v -0.058939 -0.006585 -2.730605
v -0.058939 5.688104 -2.730605
v 0.058939 -0.006585 -0.103835
v 0.058939 5.688104 -0.103835
v 0.058939 -0.006585 -2.730605
v 0.058939 5.688104 -2.730605
v -0.414673 3.287361 -1.687367
v 0.414673 3.287361 -1.687367
v -0.414673 3.287361 -2.526652
v 0.414673 3.287361 -2.526652
v -0.414673 3.154127 -1.687367
v 0.414673 3.154127 -1.687367
v -0.414673 3.154127 -2.526652
v 0.414673 3.154127 -2.526652
v 0.321415 3.154127 -1.687367
v 0.321415 3.287361 -1.687367
v 0.321415 3.154127 -2.343565
v 0.321415 3.287361 -2.343565
v -0.321416 3.154127 -2.343565
v -0.321416 3.287361 -2.343565
v -0.321416 3.154127 -1.687367
v -0.321416 3.287361 -1.687367
vt -0.194240 -0.033363
vt -0.194240 0.966637
vt 0.805760 0.966637
vt 0.805760 -0.033363
vt 0.474429 -0.033363
vt 0.474429 0.966637
vt 0.525571 0.966637
vt 0.525571 -0.033363
vt 0.723649 -0.012220
vt 0.723649 0.987780
vt 0.207310 0.981579
vt 0.182507 -0.018421
vt 0.525571 -0.033363
vt 0.525571 0.966637
vt 0.474429 0.966637
vt 0.474429 -0.033363
vt 0.474429 0.805760
vt 0.525571 0.805760
vt 0.525571 -0.194240
vt 0.474429 -0.194240
vt 0.525571 0.805760
vt 0.474429 0.805760
vt 0.474429 -0.194240
vt 0.525571 -0.194240
vt 0.818580 0.453078
vt 0.818580 0.508235
vt 0.873738 0.508235
vt 0.873738 0.453078
vt 0.445032 0.478395
vt 0.445032 0.588331
vt 0.554968 0.588331
vt 0.554968 0.478395
vt 0.856906 0.525717
vt 0.856906 0.553411
vt 0.829212 0.553411
vt 0.829212 0.525717
vt 0.554968 0.478395
vt 0.554968 0.588331
vt 0.445032 0.588331
vt 0.445032 0.478395
vt 0.445032 0.749207
vt 0.554968 0.749207
vt 0.554968 0.639272
vt 0.445032 0.639272
vt 0.554968 0.749207
vt 0.445032 0.749207
vt 0.445032 0.639272
vt 0.554968 0.639272
vt 0.054537 0.000000
vt 0.054537 0.112447
vt 0.836390 0.112447
vt 0.836390 0.887553
vt 0.054537 0.887553
vt 0.054537 1.000000
vt 0.985635 0.990157
vt 0.980713 0.000000
vt 0.000000 0.000000
vt 0.000000 1.000000
vt 1.000000 1.000000
vt 1.000000 0.000000
vt 1.054537 0.000000
vt 1.054537 1.000000
vt 0.054537 1.000000
vt 0.054537 0.887553
vt 0.836390 0.887553
vt 0.836390 0.112447
vt 0.054537 0.112447
vt 0.054537 0.000000
vt 1.000000 0.000000
vt 1.000000 0.112447
vt 0.000000 0.112447
vt 0.000000 0.000000
vt -0.006668 0.996453
vt 0.993331 0.996453
vt 0.993331 -0.003547
vt -0.006668 -0.003547
vt 1.000000 1.054537
vt 0.000000 1.054537
vt 0.000000 0.054537
vt 1.000000 0.054537
vt 0.000000 0.112447
vt 1.000000 0.112447
vt 1.000000 0.887553
vt 0.000000 0.887553
vt 0.000000 0.887553
vt 1.000000 0.887553
vt 1.000000 1.000000
vt 0.000000 1.000000
vt 1.000000 0.836390
vt 0.000000 0.836390
vt 0.000000 0.054537
vt 1.000000 0.054537
vt 0.000000 0.836390
vt 1.000000 0.836390
vt 1.000000 0.054537
vt 0.000000 0.054537
vn -1.0000 0.0000 0.0000
vn 0.0000 0.0000 -1.0000
vn 1.0000 0.0000 0.0000
vn 0.0000 0.0000 1.0000
vn 0.0000 -1.0000 0.0000
vn 0.0000 1.0000 0.0000
usemtl Material.001
s off
f 25/49/7 26/50/7 28/51/7 27/52/7
f 27/53/8 28/54/8 32/55/8 31/56/8
f 31/57/9 32/58/9 30/59/9 29/60/9
f 29/61/10 30/62/10 26/63/10 25/64/10
f 27/65/11 31/66/11 29/67/11 25/68/11
f 32/69/12 28/70/12 26/71/12 30/72/12
usemtl Material.004
f 17/73/7 18/74/7 20/75/7 19/76/7
f 19/77/8 20/78/8 24/79/8 23/80/8
f 23/81/9 24/82/9 22/83/9 21/84/9
f 21/85/10 22/86/10 18/87/10 17/88/10
f 19/89/11 23/90/11 21/91/11 17/92/11
f 24/93/12 20/94/12 18/95/12 22/96/12
usemtl Material.003
f 33/97/12 48/98/12 46/99/12 44/100/12 42/101/12 34/102/12 36/103/12 35/104/12
f 35/105/8 36/106/8 40/107/8 39/108/8
f 39/109/11 40/110/11 38/111/11 41/112/11 43/113/11 45/114/11 47/115/11 37/116/11
f 37/117/10 47/118/10 48/119/10 33/120/10
f 35/121/7 39/122/7 37/123/7 33/124/7
f 40/125/9 36/126/9 34/127/9 38/128/9
f 46/129/10 45/130/10 43/131/10 44/132/10
f 42/133/10 41/134/10 38/135/10 34/136/10
f 45/137/9 46/138/9 48/139/9 47/140/9
f 44/141/7 43/142/7 41/143/7 42/144/7
