# Blender v3.0.1 OBJ File: 'edificioTexturizadoV3.blend'
# www.blender.org
mtllib penguinAlaIzq.mtl
o penguin.012_penguin.013
v 0.133210 0.002819 -0.005210
v -0.160558 -0.180153 -0.014323
v -0.016534 -0.149227 0.018469
v 0.162077 0.123049 0.011628
v 0.112571 0.166656 0.030538
v 0.219151 -1.151144 0.669008
v 0.225055 -1.179381 0.700025
v 0.267236 -1.083395 0.694818
v 0.256378 -1.077999 0.667017
v 0.178929 -1.171038 0.656542
v 0.177556 -1.210280 0.677693
v 0.186583 -1.165342 0.684184
v 0.225640 -1.142529 0.703504
v 0.259402 -1.071688 0.694452
v -0.162077 0.003748 -0.030538
v -0.110762 0.133253 -0.002766
v 0.000163 0.180153 0.026768
v -0.132077 -0.253414 0.042183
v -0.029918 -0.177578 0.079668
v -0.015531 -0.350046 0.175179
v -0.105707 -0.429346 0.121491
v 0.072509 -0.218851 0.236439
v 0.077589 -0.066277 0.132610
v 0.115181 -0.028238 0.142770
v 0.083971 -0.159960 0.264971
v 0.037039 -0.156410 0.261544
v 0.073472 0.000042 0.138635
v -0.029845 -0.001245 0.111624
v -0.059411 -0.214859 0.238936
v -0.130126 -0.051623 0.075231
v -0.143610 -0.276899 0.179652
v -0.174069 -0.177664 0.044559
v -0.158504 -0.377222 0.129723
v 0.119671 -0.365616 0.366202
v 0.129983 -0.313566 0.397726
v 0.172978 -0.472510 0.468799
v 0.157584 -0.517090 0.460244
v 0.084491 -0.323597 0.396205
v 0.138086 -0.489195 0.497914
v -0.004816 -0.392880 0.359492
v 0.052924 -0.574764 0.483712
v -0.082532 -0.484573 0.308844
v -0.027681 -0.672125 0.455263
v -0.093279 -0.561827 0.265558
v -0.049634 -0.724993 0.429468
v -0.048221 -0.577011 0.255314
v -0.010779 -0.714989 0.412540
v 0.041521 -0.482512 0.303807
v 0.078580 -0.621805 0.432912
v 0.213739 -0.684805 0.531671
v 0.237354 -0.649113 0.551094
v 0.282084 -0.821995 0.602204
v 0.257284 -0.849630 0.578257
v 0.201699 -0.667189 0.574509
v 0.256564 -0.838740 0.623296
v 0.116755 -0.746388 0.572907
v 0.185944 -0.904974 0.626506
v 0.039984 -0.831984 0.549895
v 0.115777 -0.974184 0.615108
v 0.015198 -0.867605 0.526389
v 0.083897 -0.999672 0.591032
v 0.102094 -0.980953 0.567054
v 0.044812 -0.848744 0.506220
v 0.130748 -0.769428 0.514940
v 0.177493 -0.916651 0.566052
v 0.272405 -0.990856 0.629133
v 0.293817 -0.966026 0.651175
v 0.275511 -0.982784 0.670108
v 0.219967 -1.044281 0.672417
v 0.161644 -1.108225 0.661011
v 0.135023 -1.132355 0.638752
v 0.148097 -1.114893 0.619596
v 0.208872 -1.054098 0.617493
vt 0.364600 0.868400
vt 0.362800 0.863300
vt 0.374300 0.863100
vt 0.375100 0.867700
vt 0.356700 0.873000
vt 0.348900 0.864100
vt 0.358900 0.857100
vt 0.366200 0.861200
vt 0.375700 0.861000
vt 0.602400 0.957800
vt 0.611200 0.925200
vt 0.632600 0.933400
vt 0.625400 0.963800
vt 0.561700 0.920400
vt 0.557800 0.950800
vt 0.568200 0.882900
vt 0.625400 0.887600
vt 0.667700 0.899900
vt 0.633400 0.871800
vt 0.687800 0.876300
vt 0.571600 0.867400
vt 0.575100 0.857300
vt 0.637800 0.860900
vt 0.691300 0.862700
vt 0.640000 0.836300
vt 0.691300 0.838400
vt 0.578600 0.832200
vt 0.635100 0.809300
vt 0.577900 0.804000
vt 0.683200 0.813000
vt 0.617300 0.785800
vt 0.661800 0.790300
vt 0.568500 0.780000
vt 0.614100 0.976200
vt 0.563500 0.965300
vt 0.646900 0.994600
vt 0.519800 0.879100
vt 0.522000 0.866000
vt 0.480800 0.865600
vt 0.478600 0.876800
vt 0.523200 0.856400
vt 0.479700 0.856900
vt 0.523300 0.830900
vt 0.474200 0.833300
vt 0.520100 0.802300
vt 0.466900 0.805900
vt 0.514300 0.782500
vt 0.462200 0.791700
vt 0.510200 0.943400
vt 0.511000 0.954100
vt 0.459200 0.941000
vt 0.462100 0.932200
vt 0.514800 0.912700
vt 0.471000 0.903900
vt 0.441500 0.874200
vt 0.443200 0.865100
vt 0.412500 0.864500
vt 0.411100 0.872600
vt 0.440800 0.858300
vt 0.409300 0.859400
vt 0.433300 0.837900
vt 0.400500 0.846200
vt 0.423500 0.815700
vt 0.389500 0.828600
vt 0.420000 0.803400
vt 0.385500 0.817800
vt 0.391100 0.906500
vt 0.422900 0.919400
vt 0.417400 0.926300
vt 0.384400 0.910000
vt 0.434000 0.897200
vt 0.402700 0.888900
vt 0.388100 0.869200
vt 0.390200 0.863700
vt 0.387200 0.861100
vt 0.378000 0.852500
vt 0.364500 0.845900
vt 0.356200 0.838600
vt 0.364500 0.888100
vt 0.357600 0.888800
vt 0.378100 0.880600
vn -0.6107 0.4231 0.6693
vn -0.4708 0.7148 -0.5171
vn -0.8726 0.2569 -0.4153
vn -0.7320 0.3746 0.5690
vn -0.2197 0.5114 0.8308
vn 0.2766 0.9505 -0.1415
vn 0.5184 -0.0393 -0.8542
vn 0.1389 -0.0712 -0.9877
vn -0.1178 -0.2032 -0.9720
vn 0.0680 0.5214 0.8506
vn -0.6669 0.5175 0.5361
vn -0.5004 0.4728 0.7252
vn 0.4877 0.3570 0.7966
vn -0.7009 0.2988 0.6476
vn -0.0267 0.5750 0.8177
vn -0.8572 0.2194 0.4659
vn -0.8533 0.4676 0.2307
vn -0.6875 0.3240 0.6498
vn -0.8600 -0.1221 -0.4954
vn -0.8915 -0.2584 0.3721
vn -0.7895 -0.4009 -0.4647
vn 0.2255 -0.5725 -0.7882
vn -0.0672 -0.5522 -0.8310
vn -0.4589 -0.8836 0.0928
vn 0.3757 -0.4819 -0.7916
vn 0.2743 -0.9471 0.1663
vn 0.5659 -0.3995 -0.7212
vn 0.7533 -0.3280 -0.5701
vn 0.8383 -0.1927 -0.5100
vn 0.7014 -0.6274 0.3381
vn 0.9995 0.0298 -0.0107
vn 0.7672 -0.2260 0.6002
vn 0.9306 0.2883 0.2253
vn -0.8489 0.1334 0.5113
vn -0.7741 -0.4840 -0.4081
vn -0.8912 -0.3830 -0.2428
vn -0.7099 0.1665 0.6843
vn 0.2655 -0.4910 -0.8297
vn 0.1106 -0.4379 -0.8922
vn 0.6083 -0.3154 -0.7284
vn 0.5318 -0.2909 -0.7953
vn 0.8380 -0.1248 -0.5312
vn 0.7602 -0.1604 -0.6296
vn 0.8722 0.4583 0.1707
vn 0.8747 0.4709 0.1149
vn -0.2030 0.6484 0.7337
vn -0.1806 0.5899 0.7870
vn -0.7253 0.3178 0.6106
vn -0.6033 0.3253 0.7281
vn -0.5784 0.1326 0.8049
vn -0.9340 -0.3395 -0.1112
vn -0.9689 -0.2240 -0.1048
vn -0.5709 0.1598 0.8053
vn -0.0466 -0.3629 -0.9306
vn -0.1544 -0.3073 -0.9390
vn 0.3756 -0.2312 -0.8974
vn 0.2958 -0.2169 -0.9303
vn 0.5995 -0.1204 -0.7913
vn 0.5119 -0.1119 -0.8517
vn 0.8860 0.4616 0.0432
vn 0.9242 0.3811 -0.0260
vn 0.0555 0.4151 0.9081
vn -0.0686 0.4639 0.8832
vn -0.4006 0.2576 0.8793
vn -0.3187 0.2532 0.9134
vn -0.6653 0.2907 0.6876
vn -0.9823 -0.0493 -0.1809
vn -0.1941 -0.2528 -0.9478
vn 0.3374 -0.2435 -0.9093
vn 0.5452 -0.1170 -0.8301
vn 0.8705 0.4881 0.0617
vn 0.0454 0.4536 0.8900
vn -0.4059 0.3294 0.8524
usemtl Penguin_Body.009
s 1
f 6/1/1 7/2/2 8/3/3 9/4/4
f 10/5/5 11/6/6 7/2/2 6/1/1
f 12/7/7 13/8/8 7/2/2 11/6/6
f 8/3/3 7/2/2 13/8/8 14/9/9
f 18/10/10 19/11/11 3/12/12 2/13/13
f 20/14/14 19/11/11 18/10/10 21/15/15
f 22/16/16 23/17/17 19/11/11 20/14/14
f 3/12/12 19/11/11 23/17/17 1/18/18
f 1/18/18 23/17/17 24/19/19 4/20/20
f 25/21/21 24/19/19 23/17/17 22/16/16
f 26/22/22 27/23/23 24/19/19 25/21/21
f 4/20/20 24/19/19 27/23/23 5/24/24
f 27/23/23 28/25/25 17/26/26 5/24/24
f 26/22/22 29/27/27 28/25/25 27/23/23
f 30/28/28 28/25/25 29/27/27 31/29/29
f 16/30/30 17/26/26 28/25/25 30/28/28
f 30/28/28 32/31/31 15/32/32 16/30/30
f 31/29/29 33/33/33 32/31/31 30/28/28
f 18/10/10 32/34/31 33/35/33 21/15/15
f 2/13/13 15/36/32 32/34/31 18/10/10
f 22/16/16 34/37/34 35/38/35 25/21/21
f 36/39/36 35/38/35 34/37/34 37/40/37
f 38/41/38 35/38/35 36/39/36 39/42/39
f 25/21/21 35/38/35 38/41/38 26/22/22
f 38/41/38 40/43/40 29/27/27 26/22/22
f 39/42/39 41/44/41 40/43/40 38/41/38
f 42/45/42 40/43/40 41/44/41 43/46/43
f 31/29/29 29/27/27 40/43/40 42/45/42
f 42/45/42 44/47/44 33/33/33 31/29/29
f 43/46/43 45/48/45 44/47/44 42/45/42
f 46/49/46 44/50/44 45/51/45 47/52/47
f 21/15/15 33/35/33 44/50/44 46/49/46
f 21/15/15 46/49/46 48/53/48 20/14/14
f 49/54/49 48/53/48 46/49/46 47/52/47
f 37/40/37 34/37/34 48/53/48 49/54/49
f 20/14/14 48/53/48 34/37/34 22/16/16
f 37/40/37 50/55/50 51/56/51 36/39/36
f 52/57/52 51/56/51 50/55/50 53/58/53
f 54/59/54 51/56/51 52/57/52 55/60/55
f 39/42/39 36/39/36 51/56/51 54/59/54
f 54/59/54 56/61/56 41/44/41 39/42/39
f 55/60/55 57/62/57 56/61/56 54/59/54
f 58/63/58 56/61/56 57/62/57 59/64/59
f 43/46/43 41/44/41 56/61/56 58/63/58
f 58/63/58 60/65/60 45/48/45 43/46/43
f 59/64/59 61/66/61 60/65/60 58/63/58
f 62/67/62 63/68/63 60/69/60 61/70/61
f 45/51/45 60/69/60 63/68/63 47/52/47
f 47/52/47 63/68/63 64/71/64 49/54/49
f 65/72/65 64/71/64 63/68/63 62/67/62
f 53/58/53 50/55/50 64/71/64 65/72/65
f 49/54/49 64/71/64 50/55/50 37/40/37
f 53/58/53 66/73/66 67/74/67 52/57/52
f 8/3/3 67/74/67 66/73/66 9/4/4
f 68/75/68 67/74/67 8/3/3 14/9/9
f 55/60/55 52/57/52 67/74/67 68/75/68
f 68/75/68 69/76/69 57/62/57 55/60/55
f 14/9/9 13/8/8 69/76/69 68/75/68
f 70/77/70 69/76/69 13/8/8 12/7/7
f 59/64/59 57/62/57 69/76/69 70/77/70
f 70/77/70 71/78/71 61/66/61 59/64/59
f 12/7/7 11/6/6 71/78/71 70/77/70
f 10/5/5 72/79/72 71/80/71 11/6/6
f 61/70/61 71/80/71 72/79/72 62/67/62
f 62/67/62 72/79/72 73/81/73 65/72/65
f 6/1/1 73/81/73 72/79/72 10/5/5
f 9/4/4 66/73/66 73/81/73 6/1/1
f 65/72/65 73/81/73 66/73/66 53/58/53
f 2/13/13 3/12/12 1/18/18 4/20/20 5/24/24 17/26/26 16/30/30 15/36/32
