# Blender v3.0.1 OBJ File: 'edificioTexturizadoV3.blend'
# www.blender.org
mtllib penguinColaobj.mtl
o penguin.014_penguin.015
v -0.162722 0.285190 -0.279199
v -0.250001 0.439102 -0.364147
v -0.329062 0.730566 -0.370112
v -0.086345 0.260739 -0.230697
v -0.380116 0.462985 -0.232478
v -0.370281 0.324235 -0.205751
v -0.411890 0.548489 -0.205813
v -0.529439 0.393351 -0.171251
v -0.513708 0.337462 -0.194909
v -0.498325 0.276375 -0.186455
v -0.375971 0.795317 -0.197182
v -0.430095 0.581376 -0.133546
v -0.380528 0.795765 -0.024090
v -0.436379 0.579817 -0.033806
v -0.539071 0.406505 -0.123370
v -0.544817 0.396982 -0.062566
v -0.671504 0.319035 -0.200063
v -0.666624 0.282610 -0.193900
v -0.682516 0.346794 -0.181758
v -0.774690 0.318117 -0.187872
v -0.797800 0.301897 -0.203595
v -0.764688 0.284240 -0.193795
v -0.693763 0.343462 -0.144018
v -0.702402 0.330870 -0.095536
v -0.816201 0.299009 -0.166547
v -0.827380 0.281840 -0.118794
v -0.814843 0.248275 -0.122270
v -0.803556 0.265561 -0.170940
v -0.851190 0.274567 -0.174278
v -0.863132 0.255992 -0.126759
v -0.150445 0.273847 -0.168907
v -0.179081 0.260506 -0.037790
v -0.283334 0.330620 -0.143360
v -0.304847 0.321080 -0.044677
v -0.381704 0.292283 -0.148976
v -0.390269 0.284846 -0.060446
v -0.496441 0.249666 -0.140729
v -0.501647 0.241519 -0.076404
v -0.672871 0.257725 -0.157803
v -0.682220 0.244867 -0.105780
v -0.161567 0.290658 0.236418
v -0.253273 0.442060 0.314692
v -0.331024 0.731885 0.322180
v -0.087748 0.264315 0.198488
v -0.354270 0.309496 0.105588
v -0.378172 0.445500 0.160915
v -0.533014 0.310266 0.056409
v -0.515307 0.253265 0.037500
v -0.545907 0.368615 0.044795
v -0.416587 0.535968 0.146772
v -0.435096 0.570398 0.071229
v -0.380675 0.791721 0.151766
v -0.548677 0.391798 -0.000913
v -0.688085 0.256910 -0.009363
v -0.695409 0.290639 0.005615
v -0.783276 0.260747 -0.034124
v -0.818326 0.275974 -0.027411
v -0.792819 0.295230 -0.032256
v -0.702779 0.322413 -0.006299
v -0.705514 0.330383 -0.044955
v -0.827800 0.284343 -0.066904
v -0.862808 0.259902 -0.074502
v -0.815386 0.250644 -0.069465
v -0.141878 0.272976 0.110801
v -0.274068 0.325465 0.068088
v -0.383999 0.277603 0.031817
v -0.506434 0.236660 -0.011855
v -0.685822 0.243505 -0.051532
v -0.271138 0.251717 -0.301825
v -0.342184 0.466455 -0.291972
v -0.396291 0.650480 -0.281867
v -0.445852 0.742639 -0.203149
v -0.452789 0.741928 -0.028582
v -0.345066 0.249478 -0.058800
v -0.325820 0.260340 -0.178585
v -0.260155 0.245785 0.227287
v -0.342832 0.459363 0.231463
v -0.399541 0.645012 0.228214
v -0.452062 0.733314 0.151140
v -0.321360 0.247649 0.072384
vt 0.607650 0.573750
vt 0.630950 0.583200
vt 0.620500 0.592300
vt 0.599100 0.581600
vt 0.659400 0.598250
vt 0.641400 0.574100
vt 0.681400 0.590300
vt 0.597600 0.621800
vt 0.588100 0.610100
vt 0.637400 0.606200
vt 0.576200 0.601900
vt 0.663100 0.624300
vt 0.640800 0.626200
vt 0.662150 0.652400
vt 0.640500 0.652400
vt 0.600500 0.635500
vt 0.600700 0.652400
vt 0.563100 0.628700
vt 0.557900 0.624300
vt 0.566100 0.634500
vt 0.553900 0.640800
vt 0.550300 0.640100
vt 0.549500 0.635700
vt 0.567000 0.642800
vt 0.566600 0.652400
vt 0.549500 0.644800
vt 0.547600 0.652400
vt 0.533100 0.642400
vt 0.544700 0.639300
vt 0.545200 0.644400
vt 0.538900 0.652400
vt 0.046400 0.212500
vt 0.056200 0.218200
vt 0.043500 0.239600
vt 0.028100 0.238100
vt 0.066200 0.186000
vt 0.075300 0.192500
vt 0.559650 0.561400
vt 0.584050 0.569450
vt 0.579200 0.577200
vt 0.557100 0.569200
vt 0.588900 0.561700
vt 0.616200 0.565900
vt 0.563900 0.596600
vt 0.549000 0.590500
vt 0.548800 0.620800
vt 0.537100 0.618000
vt 0.607650 0.730950
vt 0.599100 0.723100
vt 0.620500 0.712400
vt 0.630950 0.721500
vt 0.588100 0.694600
vt 0.576200 0.702800
vt 0.597600 0.682900
vt 0.637400 0.698600
vt 0.659400 0.706550
vt 0.640800 0.678500
vt 0.663100 0.680450
vt 0.600500 0.669200
vt 0.557900 0.680400
vt 0.563100 0.676000
vt 0.549500 0.669000
vt 0.550200 0.664600
vt 0.553900 0.663900
vt 0.566100 0.670300
vt 0.567000 0.661900
vt 0.549500 0.659900
vt 0.533100 0.662300
vt 0.545200 0.660300
vt 0.544700 0.665400
vt 0.085100 0.158900
vt 0.093600 0.166300
vt 0.109900 0.147500
vt 0.103700 0.133400
vt 0.559650 0.743300
vt 0.557100 0.735500
vt 0.579200 0.727500
vt 0.584050 0.735250
vt 0.563900 0.708100
vt 0.549000 0.714200
vt 0.537100 0.686700
vt 0.548800 0.683900
vt 0.616200 0.738800
vt 0.641400 0.730600
vt 0.681400 0.714500
vt 0.685400 0.682400
vt 0.683800 0.652400
vt 0.685400 0.622400
vt 0.588900 0.743000
vt 0.562200 0.751100
vt 0.562200 0.553600
vn 0.2465 0.8369 0.4887
vn 0.6860 0.2179 0.6942
vn 0.6523 0.1001 0.7513
vn 0.4800 0.5047 0.7175
vn 0.8322 0.0121 0.5543
vn -0.4426 -0.1097 0.8900
vn -0.1756 -0.5854 0.7914
vn 0.4670 -0.5488 0.6933
vn 0.1169 -0.0338 0.9926
vn 0.8580 -0.0411 0.5119
vn -0.0739 0.6093 0.7895
vn 0.8998 -0.3379 0.2759
vn 0.9692 -0.1617 0.1858
vn 0.9171 -0.3983 0.0110
vn 0.9771 -0.2125 0.0110
vn 0.6465 -0.7531 0.1213
vn 0.6491 -0.7595 -0.0413
vn 0.0166 -0.1740 0.9846
vn -0.0221 0.5483 0.8360
vn 0.2211 -0.8282 0.5148
vn 0.2897 -0.8843 0.3660
vn 0.3941 -0.2265 0.8907
vn 0.0042 0.5782 0.8158
vn 0.3598 -0.9310 -0.0605
vn 0.3788 -0.9218 -0.0819
vn 0.4850 -0.8743 -0.0203
vn 0.4941 -0.8668 -0.0672
vn 0.0954 0.9836 0.1531
vn 0.0705 0.8433 0.5328
vn 0.8395 0.0561 0.5404
vn 0.9393 0.3063 0.1543
vn -0.2280 0.9691 -0.0936
vn -0.3320 0.9333 0.1366
vn -0.7207 0.6897 0.0708
vn -0.6445 0.7105 0.2823
vn -0.3904 0.9193 0.0494
vn -0.4290 0.9033 -0.0018
vn -0.1425 0.9881 0.0578
vn 0.1012 0.9948 0.0095
vn 0.1842 0.9362 0.2994
vn 0.0886 0.9934 0.0730
vn -0.1648 0.9392 0.3012
vn -0.1736 0.9804 0.0927
vn 0.0034 0.9145 0.4045
vn 0.0192 0.9913 0.1300
vn 0.1834 0.8979 -0.4000
vn 0.5756 0.5606 -0.5953
vn 0.6998 0.2529 -0.6680
vn 0.7174 0.2864 -0.6351
vn 0.3348 0.2098 -0.9186
vn 0.0864 0.7657 -0.6373
vn 0.6106 -0.3435 -0.7135
vn 0.8643 0.0604 -0.4993
vn 0.8376 0.0416 -0.5447
vn 0.9731 -0.1469 -0.1772
vn 0.9127 -0.3116 -0.2641
vn 0.6728 -0.7120 -0.2008
vn 0.1731 0.7585 -0.6283
vn 0.2927 0.1062 -0.9503
vn 0.1751 0.7890 -0.5889
vn 0.5970 0.0246 -0.8018
vn 0.4095 -0.7512 -0.5176
vn 0.3930 -0.6565 -0.6438
vn 0.3733 -0.9209 -0.1121
vn 0.4982 -0.8591 -0.1166
vn 0.9372 0.1794 -0.2990
vn 0.1604 0.9566 -0.2433
vn -0.2451 0.9622 0.1185
vn -0.5042 0.8509 -0.1474
vn -0.7191 0.6880 -0.0973
vn -0.6392 0.6817 -0.3560
vn 0.1688 0.9671 -0.1900
vn 0.0010 0.9999 -0.0126
vn -0.1178 0.9858 -0.1191
vn 0.0670 0.9875 -0.1421
vn -0.3667 -0.0588 -0.9285
vn -0.1616 -0.5734 -0.8032
vn -0.1124 -0.9496 -0.2924
vn -0.2456 -0.9693 -0.0052
vn -0.1401 -0.9534 0.2671
usemtl Penguin_Body.009
s 1
f 69/1/1 70/2/2 5/3/3 6/4/4
f 71/5/5 70/2/2 2/6/6 3/7/7
f 8/8/8 9/9/9 5/3/3 7/10/10
f 6/4/4 5/3/3 9/9/9 10/11/11
f 71/5/5 72/12/12 12/13/13 7/10/10
f 73/14/14 14/15/15 12/13/13 72/12/12
f 15/16/16 12/13/13 14/15/15 16/17/17
f 8/8/8 7/10/10 12/13/13 15/16/16
f 10/11/11 9/9/9 17/18/18 18/19/19
f 19/20/20 17/18/18 9/9/9 8/8/8
f 20/21/21 21/22/22 17/18/18 19/20/20
f 22/23/23 18/19/19 17/18/18 21/22/22
f 15/16/16 23/24/24 19/20/20 8/8/8
f 16/17/17 24/25/25 23/24/24 15/16/16
f 25/26/26 23/24/24 24/25/25 26/27/27
f 20/21/21 19/20/20 23/24/24 25/26/26
f 27/28/28 28/29/29 29/30/30 30/31/31
f 21/22/22 29/30/30 28/29/29 22/23/23
f 25/26/26 29/30/30 21/22/22 20/21/21
f 26/27/27 30/31/31 29/30/30 25/26/26
f 33/32/32 31/33/33 4/34/34 1/35/35
f 34/36/36 32/37/37 31/33/33 33/32/32
f 74/38/38 75/39/39 35/40/40 36/41/41
f 69/1/1 75/39/39 33/42/32 1/43/35
f 10/11/11 37/44/42 35/40/40 6/4/4
f 36/41/41 35/40/40 37/44/42 38/45/43
f 38/45/43 37/44/42 39/46/44 40/47/45
f 18/19/19 39/46/44 37/44/42 10/11/11
f 22/23/23 28/29/29 39/46/44 18/19/19
f 40/47/45 39/46/44 28/29/29 27/28/28
f 76/48/46 45/49/47 46/50/48 77/51/49
f 47/52/50 46/50/48 45/49/47 48/53/51
f 49/54/52 50/55/53 46/50/48 47/52/50
f 77/51/49 46/50/48 50/55/53 78/56/54
f 78/56/54 50/55/53 51/57/55 79/58/56
f 49/54/52 53/59/57 51/57/55 50/55/53
f 14/15/15 51/57/55 53/59/57 16/17/17
f 73/14/14 79/58/56 51/57/55 14/15/15
f 48/53/51 54/60/58 55/61/59 47/52/50
f 56/62/60 57/63/61 55/61/59 54/60/58
f 58/64/62 59/65/63 55/61/59 57/63/61
f 47/52/50 55/61/59 59/65/63 49/54/52
f 59/65/63 60/66/64 53/59/57 49/54/52
f 58/64/62 61/67/65 60/66/64 59/65/63
f 24/25/25 60/66/64 61/67/65 26/27/27
f 16/17/17 53/59/57 60/66/64 24/25/25
f 27/68/28 30/31/31 62/69/66 63/70/67
f 26/27/27 61/67/65 62/69/66 30/31/31
f 57/63/61 62/69/66 61/67/65 58/64/62
f 63/70/67 62/69/66 57/63/61 56/62/60
f 34/36/36 65/71/68 64/72/69 32/37/37
f 44/73/70 64/72/69 65/71/68 41/74/71
f 74/75/38 36/76/41 66/77/72 80/78/73
f 67/79/74 66/77/72 36/76/41 38/80/43
f 48/53/51 45/49/47 66/77/72 67/79/74
f 80/78/73 66/77/72 45/49/47 76/48/46
f 38/80/43 40/81/45 68/82/75 67/79/74
f 63/70/67 68/82/75 40/81/45 27/68/28
f 56/62/60 54/60/58 68/82/75 63/70/67
f 67/79/74 68/82/75 54/60/58 48/53/51
f 2/6/6 1/35/35 4/34/34 31/33/33 32/37/37 64/72/69 44/73/70 41/83/71 42/84/76 43/85/77 52/86/78 13/87/79 11/88/80 3/7/7
f 65/89/68 80/78/73 76/48/46 41/83/71
f 34/90/36 74/75/38 80/78/73 65/89/68
f 13/87/79 52/86/78 79/58/56 73/14/14
f 43/85/77 78/56/54 79/58/56 52/86/78
f 42/84/76 77/51/49 78/56/54 43/85/77
f 41/83/71 76/48/46 77/51/49 42/84/76
f 6/4/4 35/40/40 75/39/39 69/1/1
f 34/91/36 33/42/32 75/39/39 74/38/38
f 13/87/79 73/14/14 72/12/12 11/88/80
f 3/7/7 11/88/80 72/12/12 71/5/5
f 7/10/10 5/3/3 70/2/2 71/5/5
f 1/43/35 2/6/6 70/2/2 69/1/1
