# Blender v3.0.1 OBJ File: 'edificioTexturizadoV3.blend'
# www.blender.org
mtllib AlbatrosAlaDer.mtl
o Sphere.001
v 0.161701 0.027347 -0.120977
v 0.164869 0.018641 -0.123347
v 0.000000 0.027347 -0.123347
v -0.161701 0.027347 -0.120977
v -0.164869 -0.000000 -0.123347
v 0.000000 0.018641 -0.125763
v 0.175682 0.093815 -0.863559
v 0.178850 0.066468 -0.865929
v 0.013980 0.093815 -0.865929
v -0.147721 0.093815 -0.397526
v -0.150888 0.066468 -0.399896
v 0.013981 0.066468 -0.868345
v -0.157878 0.033234 -0.261621
v -0.154711 0.060581 -0.259251
v 0.168692 0.060581 -0.492268
v 0.006990 0.060581 -0.494638
v 0.006991 0.051876 -0.497054
v 0.171860 0.051876 -0.494638
v 0.320296 0.013673 -0.115074
v -0.226667 0.013673 -0.122162
v 0.177266 0.080142 -1.004554
v 0.334276 0.080142 -0.391623
v -0.212686 0.080142 -0.398711
v 0.013981 0.080142 -1.006947
v 0.327286 0.046908 -0.253349
v -0.219677 0.046908 -0.260436
v 0.080851 0.027347 -0.122162
v 0.082435 0.018641 -0.124555
v 0.094831 0.093815 -0.864744
v 0.096415 0.066468 -0.867137
v 0.089425 0.051876 -0.495846
v 0.087841 0.060581 -0.493453
v 0.095623 0.080142 -1.098957
v 0.320296 0.013673 -0.115074
v 0.233959 0.027347 -0.117715
v 0.312771 0.018906 -0.114933
v 0.293721 0.023342 -0.115385
v 0.266046 0.026306 -0.116362
v 0.312427 0.093815 -0.447527
v 0.334276 0.080142 -0.391623
v 0.319836 0.092774 -0.425791
v 0.326590 0.089810 -0.407534
v 0.331661 0.085374 -0.395536
v 0.265567 0.050936 -0.254164
v 0.327337 0.046682 -0.253367
v 0.288237 0.053569 -0.253511
v 0.307937 0.053685 -0.253130
v 0.321667 0.051267 -0.253080
v 0.265146 0.006850 -0.118820
v 0.320796 0.011472 -0.115254
v 0.287242 0.005102 -0.117743
v 0.305576 0.005366 -0.116686
v 0.317359 0.007603 -0.115812
v 0.334777 0.077940 -0.391803
v 0.321633 0.066468 -0.439750
v 0.334575 0.073550 -0.395740
v 0.332007 0.069828 -0.406234
v 0.327462 0.067342 -0.421688
v 0.292215 0.037723 -0.312303
v 0.327786 0.044706 -0.253528
v 0.306627 0.036879 -0.290098
v 0.318448 0.037909 -0.271131
v 0.325878 0.040658 -0.258289
vt 0.718750 0.562500
vt 0.704228 0.562500
vt 0.699637 0.562500
vt 0.718750 0.562500
vt 0.687500 0.531250
vt 0.687500 0.526218
vt 0.687500 0.526218
vt 0.687500 0.531250
vt 0.734375 0.562500
vt 0.718750 0.562500
vt 0.734375 0.562500
vt 0.781250 0.531250
vt 0.781250 0.562500
vt 0.781250 0.562500
vt 0.781250 0.531250
vt 0.698984 0.500000
vt 0.718750 0.500000
vt 0.718750 0.500000
vt 0.695026 0.500000
vt 0.718750 0.500000
vt 0.718750 0.531250
vt 0.687500 0.531250
vt 0.687500 0.526218
vt 0.687569 0.514911
vt 0.687784 0.502552
vt 0.689137 0.500661
vt 0.690605 0.500000
vt 0.734375 0.531250
vt 0.694463 0.562500
vt 0.691267 0.562500
vt 0.750000 0.562500
vt 0.750000 0.531250
vt 0.734375 0.500000
vt 0.750000 0.500000
vt 0.750000 0.500000
vt 0.734375 0.500000
vt 0.781250 0.500000
vt 0.781250 0.500000
vt 0.750000 0.562500
vt 0.781250 0.562500
vt 0.750000 0.562500
vt 0.750000 0.500000
vt 0.781250 0.500000
vt 0.734375 0.500000
vt 0.781250 0.531250
vt 0.734375 0.562500
vt 0.690125 0.561714
vt 0.687844 0.559461
vt 0.687584 0.541674
vt 0.687500 0.531250
vt 0.687500 0.530735
vt 0.687500 0.541234
vt 0.687500 0.562500
vt 0.693835 0.562500
vt 0.687500 0.531250
vt 0.687500 0.543148
vt 0.687500 0.562500
vt 0.698524 0.562500
vt 0.687500 0.517309
vt 0.687500 0.514627
vt 0.687500 0.500000
vt 0.687500 0.500000
vt 0.694717 0.500000
vt 0.692028 0.500000
vn -0.0917 0.9904 0.1039
vn 0.9720 0.2127 0.1003
vn -0.0013 0.9960 0.0891
vn -0.2048 0.9540 0.2189
vn -0.0203 -0.9933 -0.1140
vn 0.5959 -0.7843 -0.1727
vn 0.0426 0.9965 -0.0724
vn -0.2550 0.9612 0.1052
vn -0.2282 0.9701 -0.0823
vn 0.0006 -0.9992 -0.0393
vn -0.1503 -0.9839 -0.0965
vn 0.2865 0.9490 0.1316
vn 0.0966 0.9866 0.1313
vn 0.0192 -0.9915 -0.1288
vn 0.0013 -0.9960 -0.0891
vn -0.2142 -0.9472 -0.2385
vn -0.2368 -0.9677 -0.0861
vn 0.1246 -0.9892 -0.0769
vn 0.0430 -0.9963 -0.0738
vn 0.5012 0.8533 -0.1437
vn -0.0407 -0.9965 -0.0735
vn -0.0406 0.9965 -0.0727
vn 0.7093 0.6744 0.2051
vn 0.1907 0.9510 0.2434
vn -0.0482 0.9749 0.2174
vn -0.1834 0.9668 0.1777
vn 0.5871 0.7796 0.2182
vn 0.1956 0.9526 0.2329
vn 0.0526 0.9760 0.2115
vn -0.0351 0.9838 0.1760
vn 0.8494 -0.5222 -0.0764
vn 0.3631 -0.9150 -0.1760
vn 0.1583 -0.9716 -0.1756
vn 0.0348 -0.9858 -0.1644
vn 0.9707 -0.2402 -0.0024
vn 0.7063 -0.6995 -0.1087
vn 0.4812 -0.8653 -0.1404
vn 0.3089 -0.9385 -0.1546
usemtl Material.225
s off
f 1/1/1 35/2/1 44/3/1 15/4/1
f 19/5/2 50/6/2 60/7/2 25/8/2
f 32/9/3 15/4/3 7/10/3 29/11/3
f 26/12/4 14/13/4 10/14/4 23/15/4
f 49/16/5 2/17/5 18/18/5 59/19/5
f 8/20/6 21/21/6 22/22/6 54/23/6 56/24/6 57/25/6 58/26/6 55/27/6
f 33/28/7 29/11/7 7/10/7 21/21/7
f 15/4/8 44/29/8 39/30/8 7/10/8
f 23/15/9 10/14/9 9/31/9 24/32/9
f 31/33/10 17/34/10 12/35/10 30/36/10
f 17/34/11 13/37/11 11/38/11 12/35/11
f 25/8/2 60/7/2 54/23/2 22/22/2
f 14/13/12 16/39/12 9/31/12 10/14/12
f 4/40/13 3/41/13 16/39/13 14/13/13
f 6/42/14 5/43/14 13/37/14 17/34/14
f 28/44/15 6/42/15 17/34/15 31/33/15
f 20/45/4 4/40/4 14/13/4 26/12/4
f 27/46/3 1/1/3 15/4/3 32/9/3
f 5/43/16 20/45/16 26/12/16 13/37/16
f 11/38/17 23/15/17 24/32/17 12/35/17
f 59/19/18 18/18/18 8/20/18 55/27/18
f 30/36/19 33/28/19 21/21/19 8/20/19
f 21/21/20 7/10/20 39/30/20 41/47/20 42/48/20 43/49/20 40/50/20 22/22/20
f 13/37/16 26/12/16 23/15/16 11/38/16
f 12/35/21 24/32/21 33/28/21 30/36/21
f 3/41/3 27/46/3 32/9/3 16/39/3
f 2/17/15 28/44/15 31/33/15 18/18/15
f 18/18/10 31/33/10 30/36/10 8/20/10
f 24/32/22 9/31/22 29/11/22 33/28/22
f 16/39/3 32/9/3 29/11/3 9/31/3
f 45/51/23 40/50/23 43/49/23 48/52/23
f 48/52/24 43/49/24 42/48/24 47/53/24
f 47/53/25 42/48/25 41/47/25 46/54/25
f 46/54/26 41/47/26 39/30/26 44/29/26
f 34/55/27 45/51/27 48/52/27 36/56/27
f 36/56/28 48/52/28 47/53/28 37/57/28
f 37/57/29 47/53/29 46/54/29 38/58/29
f 38/58/30 46/54/30 44/3/30 35/2/30
f 60/7/31 50/6/31 53/59/31 63/60/31
f 63/60/32 53/59/32 52/61/32 62/62/32
f 62/62/33 52/61/33 51/63/33 61/64/33
f 61/64/34 51/63/34 49/16/34 59/19/34
f 54/23/35 60/7/35 63/60/35 56/24/35
f 56/24/36 63/60/36 62/62/36 57/25/36
f 57/25/37 62/62/37 61/64/37 58/26/37
f 58/26/38 61/64/38 59/19/38 55/27/38
